<svg width="403" height="240" viewBox="0 0 403 240" fill="none" xmlns="http://www.w3.org/2000/svg">
<rect y="234" width="396" height="6" fill="url(#paint0_linear)"/>
<g clip-path="url(#clip0)">
<path d="M213.734 52.1001H192.267C191.281 52.1001 190.476 51.2971 190.476 50.3148V29.6648C190.476 28.6824 191.281 27.8795 192.267 27.8795H213.734C214.719 27.8795 215.525 28.6824 215.525 29.6648V50.3148C215.525 51.2971 214.718 52.1001 213.734 52.1001Z" fill="#C0D8FB"/>
<path d="M212.804 51.0505H193.197C192.297 51.0505 191.561 50.3162 191.561 49.4193V30.5588C191.561 29.662 192.297 28.9277 193.197 28.9277H212.804C213.704 28.9277 214.44 29.662 214.44 30.5588V49.4193C214.44 50.3176 213.704 51.0505 212.804 51.0505Z" fill="#DFEBFD"/>
<path d="M202.482 31.139C202.482 30.8531 202.714 30.6219 203.001 30.6219C203.288 30.6219 203.52 30.8531 203.52 31.139C203.52 31.4249 203.288 31.6561 203.001 31.6561C202.714 31.6561 202.482 31.4249 202.482 31.139Z" fill="#B7D3F3"/>
<path d="M206.669 31.8691C206.808 31.6196 207.124 31.5299 207.375 31.6687C207.625 31.8074 207.715 32.1227 207.576 32.3721C207.437 32.6216 207.12 32.7113 206.87 32.5725C206.62 32.4338 206.53 32.1199 206.669 31.8691Z" fill="#B7D3F3"/>
<path d="M210.256 34.7095C210.497 34.5554 210.819 34.624 210.974 34.8637C211.13 35.1033 211.059 35.4242 210.819 35.5784C210.578 35.7325 210.256 35.6638 210.102 35.4242C209.946 35.1846 210.016 34.8651 210.256 34.7095Z" fill="#B7D3F3"/>
<path d="M212.033 39.1069C212.32 39.1069 212.552 39.3382 212.552 39.624C212.552 39.9099 212.32 40.1411 212.033 40.1411C211.747 40.1411 211.515 39.9099 211.515 39.624C211.515 39.3382 211.747 39.1069 212.033 39.1069Z" fill="#B7D3F3"/>
<path d="M211.125 44.2078C211.328 44.4096 211.328 44.7375 211.125 44.9393C210.923 45.1411 210.594 45.1411 210.391 44.9393C210.189 44.7375 210.189 44.4096 210.391 44.2078C210.594 44.006 210.923 44.006 211.125 44.2078Z" fill="#B7D3F3"/>
<path d="M207.5 48.3474C207.787 48.3474 208.019 48.1158 208.019 47.8303C208.019 47.5447 207.787 47.3132 207.5 47.3132C207.214 47.3132 206.981 47.5447 206.981 47.8303C206.981 48.1158 207.214 48.3474 207.5 48.3474Z" fill="#B7D3F3"/>
<path d="M202.482 49.1433C202.482 48.8574 202.714 48.6262 203.001 48.6262C203.288 48.6262 203.52 48.8574 203.52 49.1433C203.52 49.4292 203.288 49.6604 203.001 49.6604C202.714 49.6604 202.482 49.4278 202.482 49.1433Z" fill="#B7D3F3"/>
<path d="M199.315 31.8691C199.176 31.6196 198.86 31.5299 198.609 31.6687C198.359 31.8074 198.269 32.1227 198.408 32.3721C198.547 32.6216 198.864 32.7113 199.114 32.5725C199.364 32.4338 199.454 32.1199 199.315 31.8691Z" fill="#B7D3F3"/>
<path d="M195.729 34.7095C195.489 34.5554 195.167 34.624 195.012 34.8637C194.858 35.1033 194.926 35.4242 195.167 35.5784C195.407 35.7325 195.729 35.6638 195.884 35.4242C196.039 35.1846 195.97 34.8651 195.729 34.7095Z" fill="#B7D3F3"/>
<path d="M193.951 39.1069C193.665 39.1069 193.433 39.3382 193.433 39.624C193.433 39.9099 193.665 40.1411 193.951 40.1411C194.238 40.1411 194.47 39.9099 194.47 39.624C194.47 39.3382 194.238 39.1069 193.951 39.1069Z" fill="#B7D3F3"/>
<path d="M194.858 44.2078C194.655 44.4096 194.655 44.7375 194.858 44.9393C195.06 45.1411 195.389 45.1411 195.592 44.9393C195.794 44.7375 195.794 44.4096 195.592 44.2078C195.389 44.006 195.06 44.006 194.858 44.2078Z" fill="#B7D3F3"/>
<path d="M198.118 47.4645C197.915 47.6662 197.915 47.9942 198.118 48.1959C198.32 48.3977 198.649 48.3977 198.852 48.1959C199.054 47.9942 199.054 47.6662 198.852 47.4645C198.649 47.2627 198.32 47.2627 198.118 47.4645Z" fill="#B7D3F3"/>
<path d="M202.859 39.624C202.859 39.3382 203.091 39.1069 203.378 39.1069C203.665 39.1069 203.897 39.3382 203.897 39.624C203.897 39.9099 203.665 40.1411 203.378 40.1411C203.091 40.1411 202.859 39.9099 202.859 39.624Z" fill="#B7D3F3"/>
<path d="M203.45 33.1625H203.309V39.6226H203.45V33.1625Z" fill="#B7D3F3"/>
<path d="M206.623 36.7573L203.187 39.4459L203.449 39.7788L206.885 37.0902L206.623 36.7573Z" fill="#B7D3F3"/>
<path d="M86.7819 138.38C86.7819 138.38 82.398 133.283 86.5119 130.045C86.5119 130.045 89.5166 128.232 91.9658 128.379C91.9658 128.379 88.4944 134.18 89.6178 134.758C90.7412 135.335 93.0189 128.014 93.0189 128.014C93.0189 128.014 99.8563 127.353 102.055 128.408C102.055 128.408 96.2105 133.175 97.4408 133.459C98.6725 133.742 104.985 129.063 104.985 129.063C104.985 129.063 111.349 130.142 111.01 134.011C110.671 137.88 108.478 139.074 107.515 138.971C106.552 138.869 100.914 136.724 100.791 137.511C100.669 138.299 104.062 140.87 106.438 140.991C106.438 140.991 101.951 145.922 98.9705 144.498C95.9884 143.075 95.7339 140.82 93.8752 139.973C92.0164 139.127 90.4305 139.13 91.1967 139.992C91.9644 140.855 95.3276 141.693 96.3905 143.568C97.4535 145.441 98.4067 146.705 95.322 146.243C92.2372 145.781 87.2234 143.53 87.0026 140.954C86.7819 138.38 86.7819 138.38 86.7819 138.38Z" fill="#C8DBF4"/>
<path d="M107.882 134.117C107.882 134.117 90.5982 133.453 86.7824 138.38C86.7824 138.38 85.9388 140.9 83.3405 143.194L82.9355 144.294C82.9355 144.294 85.9303 141.146 87.0017 140.956C87.0017 140.956 85.3257 134.853 107.882 134.117Z" fill="#C8DBF4"/>
<path d="M83.3408 143.194C83.3408 143.194 79.6303 145.928 79.373 150.814L80.0465 150.874C80.0465 150.874 81.2318 145.823 83.3731 143.847C85.5145 141.871 83.3408 143.194 83.3408 143.194Z" fill="#C8DBF4"/>
<path d="M71.455 131.969C71.455 131.969 78.4273 128.077 75.1739 122.794C75.1739 122.794 72.5699 119.552 69.7818 118.717C69.7818 118.717 71.2694 126.593 69.7818 126.778C68.2943 126.963 68.7597 117.883 68.7597 117.883C68.7597 117.883 61.4147 114.361 58.5324 114.64C58.5324 114.64 63.0879 122.331 61.6003 122.146C60.1128 121.961 54.9992 114.176 54.9992 114.176C54.9992 114.176 47.4686 112.786 46.2595 117.234C45.0503 121.682 47.0032 123.906 48.1196 124.185C49.236 124.462 56.3939 124.37 56.2083 125.296C56.0227 126.222 51.1875 127.705 48.4922 126.871C48.4922 126.871 51.4673 134.191 55.3717 133.822C59.2762 133.45 60.4854 131.041 62.9023 130.856C65.3192 130.671 67.0865 131.32 65.8774 131.969C64.6682 132.618 60.5782 132.182 58.6252 133.836C56.6723 135.49 55.092 136.509 58.718 137.251C62.3441 137.992 68.8525 137.528 70.1544 134.749C71.455 131.969 71.455 131.969 71.455 131.969Z" fill="#C8DBF4"/>
<path d="M49.7002 118.625C49.7002 118.625 69.2253 124.927 71.4566 131.969C71.4566 131.969 71.3638 135.119 73.3168 138.733V140.123C73.3168 140.123 71.2711 135.398 70.1561 134.749C70.1533 134.749 74.5231 128.634 49.7002 118.625Z" fill="#C8DBF4"/>
<path d="M73.3151 138.735C73.3151 138.735 76.3268 143.292 74.6101 148.839L73.8353 148.632C73.8353 148.632 74.5876 142.522 73.0114 139.449C71.4353 136.375 73.3151 138.735 73.3151 138.735Z" fill="#C8DBF4"/>
<path d="M82.5482 126.602C82.5482 126.602 73.3557 121.472 77.6454 114.508C77.6454 114.508 81.0775 110.233 84.7542 109.134C84.7542 109.134 82.7928 119.517 84.7542 119.762C86.7155 120.006 86.1025 108.036 86.1025 108.036C86.1025 108.036 95.7842 103.394 99.5833 103.76C99.5833 103.76 93.5782 113.899 95.5382 113.654C97.4996 113.41 104.24 103.149 104.24 103.149C104.24 103.149 114.168 101.316 115.761 107.179C117.354 113.043 114.781 115.974 113.31 116.341C111.839 116.707 102.402 116.585 102.647 117.807C102.892 119.029 109.265 120.983 112.819 119.884C112.819 119.884 108.898 129.533 103.751 129.046C98.6033 128.557 97.0103 125.381 93.8243 125.137C90.6383 124.894 88.3085 125.748 89.903 126.603C91.4959 127.458 96.888 126.884 99.4623 129.064C102.037 131.244 104.119 132.588 99.34 133.565C94.5596 134.542 85.9816 133.932 84.2649 130.266C82.5482 126.602 82.5482 126.602 82.5482 126.602Z" fill="#D4E4F8"/>
<path d="M111.226 109.012C111.226 109.012 85.4887 117.318 82.5473 126.602C82.5473 126.602 82.6697 130.755 80.0967 135.519V137.35C80.0967 137.35 82.7934 131.121 84.2641 130.265C84.2641 130.266 78.5037 122.204 111.226 109.012Z" fill="#D4E4F8"/>
<path d="M80.0972 135.519C80.0972 135.519 76.128 141.526 78.3903 148.838L79.4111 148.565C79.4111 148.565 78.4198 140.51 80.4965 136.46C82.5745 132.409 80.0972 135.519 80.0972 135.519Z" fill="#D4E4F8"/>
<path d="M82.2396 164.696C92.1843 164.696 100.245 156.662 100.245 146.75H64.2344C64.2344 156.662 72.2964 164.696 82.2396 164.696Z" fill="#D4E4F8"/>
<path d="M100.494 165.609H63.9854C63.9854 164.386 64.9794 163.395 66.2068 163.395H98.2721C99.4981 163.395 100.494 164.386 100.494 165.609Z" fill="#D4E4F8"/>
<path d="M100.653 146.75H63.6416V147.301H100.653V146.75Z" fill="#9FC1F4"/>
<path d="M104.259 166.704V168.426C104.259 169.029 104.064 169.522 103.825 169.522H40.7684C40.5294 169.522 40.334 169.03 40.334 168.426V166.704C40.334 166.103 40.5294 165.608 40.7684 165.608H103.825C104.064 165.609 104.259 166.103 104.259 166.704Z" fill="#9ABFE2"/>
<path d="M104.259 166.704V168.426C104.259 169.029 104.079 169.522 103.86 169.522H53.8007C53.5813 169.522 53.4014 169.03 53.4014 168.426V166.704C53.4014 166.103 53.5813 165.608 53.8007 165.608H103.86C104.079 165.609 104.259 166.103 104.259 166.704Z" fill="#BAD4F4"/>
<path d="M88.2998 169.522H43.5342V234.552H88.2998V169.522Z" fill="#C8DBF4"/>
<path d="M100.845 169.522H56.0791V234.552H100.845V169.522Z" fill="#DFEBFD"/>
<path d="M98.4397 230.963H58.4854V171.36H98.4397V230.963ZM58.917 230.533H98.008V171.789H58.917V230.533Z" fill="#B7D3F3"/>
<path d="M98.2238 191.077H58.7012V191.507H98.2238V191.077Z" fill="#B7D3F3"/>
<path d="M98.2238 211.178H58.7012V211.608H98.2238V211.178Z" fill="#B7D3F3"/>
<path d="M82.5117 175.203H75.178C74.8223 175.203 74.5312 174.913 74.5312 174.558C74.5312 174.204 74.8223 173.914 75.178 173.914H82.5117C82.8674 173.914 83.1585 174.204 83.1585 174.558C83.1585 174.913 82.8674 175.203 82.5117 175.203Z" fill="#B7D3F3"/>
<path d="M82.5117 194.861H75.178C74.8223 194.861 74.5312 194.571 74.5312 194.216C74.5312 193.862 74.8223 193.571 75.178 193.571H82.5117C82.8674 193.571 83.1585 193.862 83.1585 194.216C83.1585 194.571 82.8674 194.861 82.5117 194.861Z" fill="#B7D3F3"/>
<path d="M82.5117 215.351H75.178C74.8223 215.351 74.5312 215.061 74.5312 214.706C74.5312 214.352 74.8223 214.062 75.178 214.062H82.5117C82.8674 214.062 83.1585 214.352 83.1585 214.706C83.1585 215.061 82.8674 215.351 82.5117 215.351Z" fill="#B7D3F3"/>
<path d="M53.449 156.691V165.727H44.3086V156.663C44.3086 156.575 44.3128 156.489 44.3227 156.404C44.4183 155.366 45.0875 154.495 46.0099 154.104C46.6679 153.827 47.129 153.227 47.1656 152.517L47.2331 151.212H50.5892L50.6103 152.514C50.6244 153.223 51.0743 153.833 51.7295 154.107C52.656 154.497 53.3281 155.368 53.4336 156.404C53.4434 156.498 53.449 156.593 53.449 156.691Z" fill="#C8DBF4"/>
<path d="M50.8284 151.784H46.9141L47.0167 150.764H50.7243L50.8284 151.784Z" fill="#B7D3F3"/>
<path d="M53.449 156.691V162.518H44.3086V156.662C44.3086 156.574 44.3128 156.488 44.3227 156.403H53.435C53.4434 156.498 53.449 156.593 53.449 156.691Z" fill="white"/>
<path d="M60.9589 160.672V165.726H55.8467V160.656C55.8467 160.607 55.8495 160.56 55.8537 160.511C55.9071 159.93 56.2811 159.443 56.7971 159.224C57.1655 159.069 57.4242 158.734 57.4439 158.336L57.4819 157.606H59.3589L59.3701 158.334C59.3772 158.731 59.6302 159.071 59.9972 159.226C60.5146 159.444 60.8914 159.932 60.9505 160.511C60.9561 160.564 60.9589 160.617 60.9589 160.672Z" fill="#C8DBF4"/>
<path d="M59.4928 157.927H57.3037L57.3614 157.357H59.4352L59.4928 157.927Z" fill="#B7D3F3"/>
<path d="M60.9589 160.672V163.932H55.8467V160.657C55.8467 160.608 55.8495 160.56 55.8537 160.511H60.9505C60.9561 160.564 60.9589 160.618 60.9589 160.672Z" fill="white"/>
<path d="M350.018 44.3381H245.301V235.127H350.018V44.3381Z" fill="#D3E3F7"/>
<path d="M345.551 47.6901H249.899V235.127H345.551V47.6901Z" fill="#E5EFFB"/>
<path d="M329.327 140.126C329.327 137.798 331.22 135.912 333.555 135.912C335.89 135.912 337.783 137.798 337.783 140.126C337.783 142.454 335.89 144.34 333.555 144.34C331.22 144.341 329.327 142.454 329.327 140.126Z" fill="#D3E3F7"/>
<path d="M317.608 76.0952H278.123V88.518H317.608V76.0952Z" fill="#F5F9FD"/>
<path d="M310.279 79.946H285.45V81.224H310.279V79.946Z" fill="#D3E3F7"/>
<path d="M306.804 83.3877H288.925V84.6657H306.804V83.3877Z" fill="#D3E3F7"/>
<path d="M318.078 88.9901H277.647V75.6229H318.08V88.9901H318.078ZM278.595 88.0456H317.132V76.5674H278.595V88.0456Z" fill="#BAD4F4"/>
<path d="M252.473 62.9169C249.196 61.2227 246.57 62.2877 246.57 62.2877C236.541 61.1134 233.615 72.7711 233.751 76.7817C233.885 80.7923 234.346 85.1014 229.868 90.3115C216.931 105.363 244.026 106.027 244.026 106.027C244.255 94.0013 258.719 98.3902 258.085 99.608C276.624 104.043 259.927 66.7706 252.473 62.9169Z" fill="#163560"/>
<path d="M213.787 113.052C213.787 113.052 212.024 110.376 210.602 110.324C209.181 110.272 206.549 109.536 206.76 110.062C206.97 110.586 208.603 110.639 208.76 110.955C208.918 111.27 206.339 111.742 205.601 111.794C204.864 111.846 203.126 111.794 203.18 112.161C203.232 112.528 206.311 114.05 208.483 113.84C210.656 113.63 213.341 114.469 213.341 114.469L213.787 113.052Z" fill="#FFB27D"/>
<path d="M239.295 113.918C239.295 113.918 238.336 115.81 236.596 117.984C234.5 120.6 231.269 123.623 227.211 124.218C225.274 124.503 223.379 124.088 221.637 123.316C221.632 123.314 221.631 123.314 221.631 123.314C216.703 121.134 212.998 116.12 212.998 116.12C212.129 113.759 213.551 112.158 213.551 112.158C213.551 112.158 223.501 114.389 224.449 113.917C225.396 113.445 230.925 97.5733 232.239 95.5778C233.557 93.5837 238.042 92.5481 238.042 92.5481L239.295 113.918Z" fill="#F9DDBF"/>
<path d="M236.596 117.984C234.499 120.6 231.268 123.623 227.211 124.218C225.273 124.503 223.378 124.088 221.636 123.316C221.828 123.341 226.749 123.946 228.711 120.449C230.711 116.879 232.875 111.214 235.848 113.103C237.131 113.92 237.074 115.946 236.596 117.984Z" fill="#F2CCAA"/>
<path d="M276.415 220.967C276.415 220.967 279.451 223.73 278.859 225.691C278.267 227.653 275.527 228.962 275.157 231.36C274.787 233.757 273.305 235.066 271.973 235.066C270.64 235.066 265.617 235.066 265.617 235.066C265.617 235.066 264.636 233.379 267.006 232.87C269.376 232.362 270.27 229.544 270.122 226.927C269.975 224.311 270.344 220.823 270.344 220.823L275.381 219.66L276.415 220.967Z" fill="#233862"/>
<path d="M250.718 222.139C250.718 222.139 251.811 233.839 250.478 234.492L233.419 234.457C233.419 234.457 233.419 232.495 236.159 232.059C238.9 231.623 243.712 230.024 244.528 226.463C245.342 222.903 250.718 222.139 250.718 222.139Z" fill="#233862"/>
<path d="M262.874 138.208C259.363 130.362 257.216 128.11 257.626 125.674C257.931 123.862 256.696 91.8797 256.696 91.8797C256.28 91.7507 255.445 91.6358 254.988 91.5349C253.548 91.2168 252.356 90.2079 251.861 88.8234C251.263 87.1558 250.788 84.6936 250.799 81.6079L250.35 81.6962L242.789 83.1886C242.789 83.1886 242.961 85.5597 242.967 87.7948C242.967 87.813 242.967 87.8326 242.967 87.8508C242.976 89.7917 241.698 91.5041 239.828 92.0422C238.874 92.3169 238.043 92.5523 238.043 92.5523C238.043 92.5523 235.266 100.453 234.736 108.568C234.206 116.683 239.785 120.209 234.694 136.428C229.496 152.989 264.813 142.543 262.874 138.208Z" fill="#FFB27D"/>
<path d="M242.79 83.1886C242.79 83.1886 242.962 85.5596 242.967 87.7948C247.198 87.6757 249.435 83.829 250.352 81.6976L242.79 83.1886Z" fill="#E8945B"/>
<path d="M241.376 85.3032C241.376 85.3032 251.387 85.4671 251.394 79.2536C251.401 73.0387 252.697 68.874 246.307 68.5068C239.917 68.1397 238.671 70.5093 238.163 72.5833C237.653 74.6559 238.772 85.1 241.376 85.3032Z" fill="#FFB27D"/>
<path d="M241.746 68.3541C241.746 68.3541 244.486 75.6452 248.693 76.7228C252.9 77.8005 254.723 76.678 254.723 76.678C254.723 76.678 251.497 74.1234 250.827 69.6643C250.829 69.6643 243.814 64.8844 241.746 68.3541Z" fill="#163560"/>
<path d="M242.425 68.9468C242.425 68.9468 240.392 69.7036 239.556 71.182C238.737 72.6267 238.041 74.5396 238.203 76.8868C238.203 76.8868 236.138 71.9317 238.459 69.1276C240.919 66.154 242.425 68.9468 242.425 68.9468Z" fill="#163560"/>
<path d="M243.554 81.4481C243.554 81.4481 242.864 82.3534 241.482 82.2889C240.368 82.2357 239.939 81.2743 239.939 81.2743C239.939 81.2743 241.984 80.7839 243.554 81.4481Z" fill="white"/>
<path d="M261.511 106.027C261.511 106.027 261.473 110.76 261.218 115.045C261.05 117.887 260.787 120.533 260.377 121.474C259.351 123.836 258.193 124.22 258.193 124.22L249.236 126.407L246.087 127.175L236.156 124.218C236.156 124.218 231.633 111.634 233.45 104.55C235.266 97.4667 238.042 92.5481 238.042 92.5481C238.042 92.5481 246.146 100.456 256.697 91.8768L261.511 106.027Z" fill="#F9DDBF"/>
<path d="M261.218 115.045C261.049 117.887 260.786 120.533 260.377 121.474C259.351 123.836 258.192 124.22 258.192 124.22L249.236 126.407L245.346 125.268C245.346 125.268 258.332 123.306 256.892 112.171L261.218 115.045Z" fill="#F2CCAA"/>
<path d="M236.788 126.13C236.788 126.13 231.87 141.387 231.553 146.582C231.237 151.777 240.954 220.376 241.346 222.77C241.715 225.026 244.525 226.463 244.525 226.463C244.525 226.463 245.819 227.223 247.663 226.704C250.224 225.984 251.032 225.121 251.032 225.121C251.032 225.121 254.861 176.196 252.492 158.719C250.122 141.242 250.094 126.128 250.094 126.128H236.788V126.13Z" fill="#ED7D2B"/>
<path d="M257.626 125.674C257.626 125.674 265.128 135.706 265.827 142.489C266.526 149.271 266.924 173.092 268.414 179.704C269.905 186.315 275.378 199.038 275.378 219.659C275.378 219.659 274.809 220.84 273.053 221.471C272.49 221.672 271.738 221.867 271.007 222.034C269.557 222.365 268.071 221.66 267.41 220.333C263.71 212.906 251.919 188.951 251.316 183.978C250.888 180.459 247.165 157.169 239.046 143.503C237.096 140.223 240.242 127.175 240.242 127.175L257.626 125.674Z" fill="#F99746"/>
<path d="M236.003 123.774C236.003 123.774 237.977 125.331 241.899 125.409C246.584 125.503 258.193 124.219 258.193 124.219C258.193 124.219 258.709 125.656 258.688 127.172C258.688 127.172 244.51 130.737 236.295 127.692C236.295 127.692 235.235 125.705 236.003 123.774Z" fill="#233862"/>
<path d="M240.776 129.434C239.598 129.434 238.638 128.352 238.638 127.022C238.638 125.692 239.597 124.61 240.776 124.61C241.955 124.61 242.913 125.692 242.913 127.022C242.913 128.352 241.955 129.434 240.776 129.434ZM240.776 125.317C239.987 125.317 239.346 126.082 239.346 127.022C239.346 127.962 239.987 128.728 240.776 128.728C241.564 128.728 242.206 127.962 242.206 127.022C242.205 126.082 241.564 125.317 240.776 125.317Z" fill="white"/>
<path d="M273.616 137.309L251.305 142.105L254.001 154.568L276.313 149.773L273.616 137.309Z" fill="#163560"/>
<path d="M251.309 142.117C251.309 142.117 257.546 147.325 264.479 145.514C271.412 143.702 273.62 137.323 273.62 137.323L251.309 142.117Z" fill="#17467F"/>
<path d="M254.43 142.536C253.746 142.536 253.189 141.981 253.189 141.3C253.189 140.619 253.746 140.066 254.43 140.066C255.113 140.066 255.668 140.621 255.668 141.3C255.668 141.983 255.113 142.536 254.43 142.536ZM254.43 140.476C253.973 140.476 253.601 140.846 253.601 141.302C253.601 141.757 253.973 142.127 254.43 142.127C254.886 142.127 255.258 141.757 255.258 141.302C255.258 140.846 254.885 140.476 254.43 140.476Z" fill="#17467F"/>
<path d="M272.592 142.866C272.592 142.866 272.6 144.672 272.945 145.544C273.288 146.415 274.32 147.577 274.663 147.577C275.006 147.577 274.348 145.762 274.519 145.799C274.691 145.835 275.521 148.82 276.122 148.893C276.724 148.966 277.27 145.545 276.955 144.201C276.64 142.857 275.279 141.247 275.279 141.247L272.592 142.866Z" fill="#FFB27D"/>
<path d="M256.696 91.8796C256.696 91.8796 262.233 92.628 265.214 98.4813C267.517 103.005 269.097 117.231 270.723 121.711C272.278 125.998 274.425 134.285 275.621 140.925C275.714 141.439 275.429 141.948 274.941 142.141L272.905 142.946C272.466 143.119 271.966 142.95 271.724 142.545C269.914 139.516 262.78 127.389 260.301 120.373C257.405 112.171 251.986 107.077 251.986 107.077L256.696 91.8796Z" fill="#F9DDBF"/>
<path d="M254.022 140.345C254.01 140.141 252.722 119.854 252.968 108.448C253.097 102.458 254.025 98.2389 254.781 95.7543C255.607 93.0427 256.838 91.9329 256.871 91.8796L257.291 92.0044C257.26 92.0548 253.842 97.1781 253.599 108.462C253.353 119.842 254.639 140.102 254.652 140.305L254.022 140.345Z" fill="#0C2442"/>
<path d="M147.751 234.433H158.272C158.193 233.884 157.925 232.21 157.433 230.669C157.263 230.132 157.063 229.611 156.837 229.158C155.813 227.122 149.314 228.417 149.314 228.417C149.314 228.417 148.711 228.933 148.239 230.901C148.031 231.769 147.847 232.919 147.751 234.433Z" fill="#233862"/>
<path d="M167.063 74.2677C167.063 74.2677 175.445 75.7349 177.341 80.6662C179.236 85.5975 189.944 165.26 189.944 165.26C189.944 165.26 184.642 169.447 173.26 167.944C161.879 166.442 167.063 74.2677 167.063 74.2677Z" fill="#91CECF"/>
<path d="M179.541 231.123C179.569 232.549 179.751 233.899 180.27 234.433H201.078C200.814 233.682 200.065 232.554 197.929 232.208C195.501 231.817 191.717 230.651 189.508 228.323C188.721 227.496 188.135 226.521 187.877 225.38C186.899 221.036 179.783 226.711 179.783 226.711C179.783 226.711 179.495 229 179.541 231.123Z" fill="#233862"/>
<path d="M188.503 229.011C186.178 229.75 181.733 232.007 178.91 230.945C177.085 230.26 166.886 200.854 166.225 187.991C166.176 187.057 165.992 185.752 165.703 184.16C165.099 180.84 164.043 176.279 162.825 171.245C159.561 157.759 155.147 140.887 155.243 135.495C155.39 127.125 180.27 133.74 180.27 133.74C180.27 133.74 181.981 140.605 182.322 150.546C182.997 170.277 184.855 203.606 189.908 226.752C190.119 227.736 189.468 228.706 188.503 229.011Z" fill="#AF4138"/>
<path d="M171.235 135.526L158.083 230.529C158.083 230.529 152.308 231.917 147.815 230.806C147.815 230.806 143.964 180.28 144.286 168.064C144.607 155.849 141.524 135.378 144.991 133.121C148.456 130.863 171.235 135.526 171.235 135.526Z" fill="#C65447"/>
<path d="M143.328 78.6203C143.328 78.6203 157.149 69.7134 167.063 74.2677C168.643 74.9936 170.444 77.0186 171.735 78.4367C175.319 82.3716 182.321 144.886 182.321 144.886C182.321 144.886 162.444 151.596 143.33 142.609V78.6203H143.328Z" fill="white"/>
<path d="M167.849 74.0421C167.849 74.0421 181.841 79.7567 183.736 84.1485C185.632 88.5403 191.791 115.506 191.791 118.669C191.791 121.832 181.066 119.375 179.34 114.276C177.906 110.041 173.071 97.0295 170.52 88.8009L167.849 74.0421Z" fill="#ABDDDA"/>
<path d="M164.943 78.3975C161.89 78.9944 157.402 78.3582 154.117 76.2002C155.601 72.6688 156.208 69.8816 156.424 68.0781C156.437 67.9814 156.447 67.8889 156.455 67.7992C156.554 66.8645 156.54 66.2297 156.493 65.9382H164.391C164.391 65.9382 166.55 66.922 166.55 67.6016C166.55 67.9646 166.553 68.3135 166.56 68.6456C166.576 69.5509 166.612 70.3412 166.66 71.0195C166.811 73.228 167.065 74.2677 167.065 74.2677C167.065 74.2677 168.028 77.7935 164.943 78.3975Z" fill="#FFB27D"/>
<path d="M166.658 71.0194C160.676 72.1713 157.203 68.9132 156.424 68.078C156.313 67.9589 156.257 67.8874 156.257 67.8874C156.32 67.8566 156.386 67.8272 156.456 67.7991C158.684 66.9009 163.737 67.6155 166.56 68.6455C166.575 69.5508 166.612 70.3411 166.658 71.0194Z" fill="#E2915A"/>
<path d="M154.47 64.6448C155.539 70.379 162.964 70.1913 166.173 69.8311C167.075 69.7316 167.643 69.6167 167.643 69.6167C168.661 69.3463 169.229 67.7473 169.494 65.6537C170.018 61.51 169.356 55.4282 168.654 53.8728C167.597 51.5325 165.606 49.0003 158.13 50.8277C150.652 52.6536 153.1 57.2962 154.47 64.6448Z" fill="#FFB27D"/>
<path d="M168.932 50.6721C167.91 49.2624 165.743 47.5387 163.775 46.4779C159.547 44.198 154.137 46.5494 154.114 46.5592C148.007 49.2357 146.412 53.8924 149.65 61.1457C153.074 68.8165 156.334 67.9533 156.334 67.9533C156.334 67.9533 155.643 67.5245 155.704 65.1338C155.707 64.9979 155.713 64.8844 155.72 64.7863C155.751 64.2958 155.578 63.8054 155.211 63.4789C154.452 62.8034 154.083 60.7631 154.717 60.1956C155.484 59.5103 156.561 60.3427 156.905 60.9831C157.206 61.4357 157.745 61.5941 158.245 61.2774C160.146 60.0792 158.912 57.6844 160.727 56.2186C162.543 54.7528 166.228 55.9832 168.953 54.8158C172.52 53.493 169.701 51.7357 168.932 50.6721Z" fill="#233862"/>
<path d="M169.782 171.115C168.578 171.423 167.387 171.677 166.204 171.872C165.156 172.05 164.114 172.182 163.07 172.27C157.155 172.783 151.213 171.953 144.269 169.969C142.705 169.522 141.09 169.015 139.412 168.453C139.234 168.392 139.869 150.091 140.602 131.212C140.676 129.263 140.754 127.307 140.829 125.364C140.863 124.54 140.894 123.722 140.928 122.905C141.593 106.208 142.251 91.1299 142.39 90.3172C142.708 88.48 143.005 86.9133 143.328 85.5568C144.274 81.6009 145.45 79.4316 148.011 77.5664C148.26 77.3773 150.309 76.3487 152.115 75.4518C153.613 74.7105 154.943 74.0631 154.943 74.0631C154.944 74.0631 154.944 74.0631 154.944 74.0631C155.539 74.3546 156.255 75.7139 157.004 77.6239C158.379 81.144 159.864 86.5336 160.897 90.5582C160.9 90.5694 160.901 90.575 160.901 90.5792C160.901 90.5806 160.901 90.5806 160.901 90.5806C161.567 93.1801 162.043 95.2036 162.18 95.7852C162.41 96.7661 162.715 98.6649 163.074 101.238C163.56 104.74 164.141 109.494 164.755 114.888C164.819 115.442 164.882 116.004 164.945 116.571C165.018 117.219 165.091 117.873 165.164 118.534C165.188 118.747 165.212 118.959 165.233 119.172C165.471 121.308 165.709 123.513 165.946 125.755C166.143 127.608 168.963 128.948 169.158 130.832C169.27 131.94 169.503 142.148 169.806 145.406C170.021 147.734 169.868 170.021 169.782 171.115Z" fill="#ABDDDA"/>
<path d="M149.383 97.0491C149.375 97.087 148.904 113.934 161.618 115.98C174.333 118.026 165.884 118.567 165.884 118.567C165.884 118.567 141.963 117.553 141.567 116.924C141.174 116.294 149.383 97.0491 149.383 97.0491Z" fill="#91CECF"/>
<path d="M160.125 123.211C160.125 123.211 159.886 123.379 159.43 123.673C159.421 123.676 159.414 123.683 159.406 123.687C157.467 124.922 151.709 128.285 143.328 130.541C142.448 130.779 141.538 131.003 140.602 131.212C140.676 129.263 140.754 127.307 140.83 125.364C139.723 125.278 138.663 125.137 137.679 124.93C137.712 124.674 137.746 124.417 137.78 124.161C138.846 123.725 139.906 123.305 140.928 122.907C141.76 122.583 142.566 122.273 143.328 121.987C146.771 120.684 149.323 119.801 149.323 119.801L159.515 123.019L160.125 123.211Z" fill="#91CECF"/>
<path d="M162.824 122.929C162.824 122.929 161.515 123.255 159.429 123.673C159.421 123.673 159.415 123.674 159.407 123.677C155.563 124.447 149.1 125.527 143.328 125.468C142.477 125.458 141.639 125.426 140.829 125.363C139.723 125.276 138.663 125.136 137.679 124.929C135.568 124.484 133.801 123.733 132.645 122.559C124.059 113.841 137.331 82.5538 140.122 79.5101C143.38 75.9563 149.327 74.7091 152.61 74.2803C152.748 74.2635 152.879 74.2453 153.007 74.2299C154.161 74.0925 154.902 74.0645 154.943 74.0631C154.944 74.0631 154.944 74.0631 154.944 74.0631C154.944 74.0631 154.687 74.8885 154.255 76.287C154.088 76.8279 153.894 77.4571 153.68 78.1564C151.664 84.7398 147.772 97.6769 146.057 104.974C145.428 107.643 145.092 109.557 145.246 110.129C145.915 112.621 152.854 113.903 157.249 114.469C159.082 114.704 160.474 114.817 160.785 114.84C160.807 114.84 160.827 114.842 160.849 114.845L161.104 115.883L161.711 118.375L162.31 120.823L162.824 122.929Z" fill="#ABDDDA"/>
<path d="M186.774 137.926L157.281 136.689L163.265 100.056L192.756 101.295L186.774 137.926Z" fill="#233862"/>
<path d="M160.85 114.847C160.85 114.847 166.591 114.448 166.879 115.782C167.55 118.892 161.944 121.444 160.128 121.27C158.31 121.095 159.529 114.64 160.85 114.847Z" fill="#FFB27D"/>
<path d="M191.143 108.733C191.143 108.733 185.651 107.021 185.061 108.253C183.686 111.123 188.549 114.899 190.356 115.147C192.164 115.397 192.478 108.836 191.143 108.733Z" fill="#FFB27D"/>
<path d="M155.538 72.226C155.538 72.226 153.123 73.3736 151.912 75.1043C151.912 75.1043 160.94 90.7264 160.899 90.5806C160.86 90.4335 157.848 74.2271 155.538 72.226Z" fill="#91CECF"/>
<path d="M166.783 72.446C167.579 72.7445 169.103 74.3027 169.448 75.1632L170.52 88.8009C170.52 88.8009 168.229 78.7926 167.063 74.2677C166.766 73.1186 166.821 72.7683 166.783 72.446Z" fill="#91CECF"/>
<path d="M173.041 100.467C173.041 100.467 173.274 99.451 174.617 99.5688C175.96 99.6865 183.502 100.056 183.502 100.056C183.502 100.056 184.957 100.033 184.82 100.962L173.041 100.467Z" fill="#C65447"/>
<path d="M164.39 65.9382C164.39 65.9382 165.368 66.828 166.949 66.552C167.885 66.388 168.409 65.1745 168.409 65.1745C168.409 65.1745 166.61 64.8522 164.39 65.9382Z" fill="white"/>
</g>
<defs>
<linearGradient id="paint0_linear" x1="384.033" y1="234" x2="-4.71428" y2="234" gradientUnits="userSpaceOnUse">
<stop stop-color="#D3DFF7" stop-opacity="0"/>
<stop offset="0.171875" stop-color="#D3DFF7"/>
<stop offset="0.796875" stop-color="#D3E2F7"/>
<stop offset="1" stop-color="#D3E3F7" stop-opacity="0"/>
</linearGradient>
<clipPath id="clip0">
<rect width="400" height="235.589" fill="white" transform="translate(3)"/>
</clipPath>
</defs>
</svg>
