<svg width="1599" height="84" viewBox="0 0 1599 84" fill="none" xmlns="http://www.w3.org/2000/svg">
<path fill-rule="evenodd" clip-rule="evenodd" d="M1600 38.7186L1556 38.7186C1510.67 38.7186 1422.67 60.849 1333.33 63C1244 65.151 1156 47.3227 1066.67 43.0207C977.333 38.7186 889.333 25.8124 800 36.5676C710.667 47.3227 622.667 81.7392 533.333 83.8903C444 86.0413 356 55.9269 266.667 49.4738C177.333 43.0207 89.3334 60.2289 44 68.8331L0 77.4372V0L44 0C89.3334 0 177.333 0 266.667 0C356 0 444 0 533.333 0C622.667 0 710.667 0 800 0C889.333 0 977.333 0 1066.67 0C1156 0 1244 0 1333.33 0C1422.67 0 1510.67 0 1556 0H1600V38.7186Z" fill="#3751FF"/>
</svg>
