<svg width="65" height="19" viewBox="0 0 65 19" fill="none" xmlns="http://www.w3.org/2000/svg">
<path d="M13.08 6.624H16.728C16.616 5.632 16.344 4.752 15.912 3.984C15.48 3.216 14.928 2.576 14.256 2.064C13.6 1.536 12.848 1.136 12 0.863999C11.168 0.592 10.28 0.456 9.336 0.456C8.024 0.456 6.84 0.688 5.784 1.152C4.744 1.616 3.864 2.256 3.144 3.072C2.424 3.888 1.872 4.848 1.488 5.952C1.104 7.04 0.912 8.224 0.912 9.504C0.912 10.752 1.104 11.92 1.488 13.008C1.872 14.08 2.424 15.016 3.144 15.816C3.864 16.616 4.744 17.248 5.784 17.712C6.84 18.16 8.024 18.384 9.336 18.384C10.392 18.384 11.36 18.224 12.24 17.904C13.12 17.584 13.888 17.12 14.544 16.512C15.2 15.904 15.728 15.168 16.128 14.304C16.528 13.44 16.776 12.472 16.872 11.4H13.224C13.08 12.552 12.68 13.48 12.024 14.184C11.384 14.888 10.488 15.24 9.336 15.24C8.488 15.24 7.768 15.08 7.176 14.76C6.584 14.424 6.104 13.984 5.736 13.44C5.368 12.896 5.096 12.288 4.92 11.616C4.76 10.928 4.68 10.224 4.68 9.504C4.68 8.752 4.76 8.024 4.92 7.32C5.096 6.616 5.368 5.992 5.736 5.448C6.104 4.888 6.584 4.448 7.176 4.128C7.768 3.792 8.488 3.624 9.336 3.624C9.8 3.624 10.24 3.704 10.656 3.864C11.088 4.008 11.472 4.216 11.808 4.488C12.144 4.76 12.424 5.08 12.648 5.448C12.872 5.8 13.016 6.192 13.08 6.624ZM22.1091 11.808C22.1091 11.312 22.1571 10.824 22.2531 10.344C22.3491 9.864 22.5091 9.44 22.7331 9.072C22.9731 8.704 23.2851 8.408 23.6691 8.184C24.0531 7.944 24.5331 7.824 25.1091 7.824C25.6851 7.824 26.1651 7.944 26.5491 8.184C26.9491 8.408 27.2611 8.704 27.4851 9.072C27.7251 9.44 27.8931 9.864 27.9891 10.344C28.0851 10.824 28.1331 11.312 28.1331 11.808C28.1331 12.304 28.0851 12.792 27.9891 13.272C27.8931 13.736 27.7251 14.16 27.4851 14.544C27.2611 14.912 26.9491 15.208 26.5491 15.432C26.1651 15.656 25.6851 15.768 25.1091 15.768C24.5331 15.768 24.0531 15.656 23.6691 15.432C23.2851 15.208 22.9731 14.912 22.7331 14.544C22.5091 14.16 22.3491 13.736 22.2531 13.272C22.1571 12.792 22.1091 12.304 22.1091 11.808ZM18.7011 11.808C18.7011 12.8 18.8531 13.696 19.1571 14.496C19.4611 15.296 19.8931 15.984 20.4531 16.56C21.0131 17.12 21.6851 17.552 22.4691 17.856C23.2531 18.16 24.1331 18.312 25.1091 18.312C26.0851 18.312 26.9651 18.16 27.7491 17.856C28.5491 17.552 29.2291 17.12 29.7891 16.56C30.3491 15.984 30.7811 15.296 31.0851 14.496C31.3891 13.696 31.5411 12.8 31.5411 11.808C31.5411 10.816 31.3891 9.92 31.0851 9.12C30.7811 8.304 30.3491 7.616 29.7891 7.056C29.2291 6.48 28.5491 6.04 27.7491 5.736C26.9651 5.416 26.0851 5.256 25.1091 5.256C24.1331 5.256 23.2531 5.416 22.4691 5.736C21.6851 6.04 21.0131 6.48 20.4531 7.056C19.8931 7.616 19.4611 8.304 19.1571 9.12C18.8531 9.92 18.7011 10.816 18.7011 11.808ZM40.6209 18L44.8209 5.592H41.4369L38.8209 14.064H38.7729L36.1569 5.592H32.5809L36.8289 18H40.6209ZM49.7297 3.672V0.863999H46.3217V3.672H49.7297ZM46.3217 5.592V18H49.7297V5.592H46.3217ZM52.4132 5.592V18H55.8212V11.496C55.8212 10.232 56.0292 9.328 56.4452 8.784C56.8612 8.224 57.5332 7.944 58.4612 7.944C59.2772 7.944 59.8452 8.2 60.1652 8.712C60.4852 9.208 60.6452 9.968 60.6452 10.992V18H64.0532V10.368C64.0532 9.6 63.9812 8.904 63.8372 8.28C63.7092 7.64 63.4772 7.104 63.1412 6.672C62.8052 6.224 62.3412 5.88 61.7492 5.64C61.1732 5.384 60.4292 5.256 59.5172 5.256C58.7972 5.256 58.0932 5.424 57.4052 5.76C56.7172 6.08 56.1572 6.6 55.7252 7.32H55.6532V5.592H52.4132Z" fill="#01518D"/>
</svg>
