<svg width="16" height="15" viewBox="0 0 16 15" fill="none" xmlns="http://www.w3.org/2000/svg">
<path d="M14.6669 6.59089L9.03283 0.956866C7.75701 -0.318955 5.67995 -0.318955 4.40413 0.956866C3.12831 2.23366 3.12831 4.30974 4.40413 5.58654L10.0377 11.2196C11.314 12.4954 13.3905 12.4954 14.6669 11.2196C15.9427 9.94377 15.9427 7.86671 14.6669 6.59089ZM13.9774 10.5302C13.081 11.4266 11.623 11.4266 10.7266 10.5302L7.96794 7.7715L11.2183 4.52067L13.9774 7.28031C14.8739 8.17578 14.8739 9.63372 13.9774 10.5302Z" fill="#657396"/>
<path d="M0.216797 12.7533C0.828586 14.4032 2.60634 15.3465 4.33917 14.8817C6.072 14.4173 7.13983 12.7113 6.84541 10.9775L0.216797 12.7533Z" fill="#657396"/>
<path d="M2.55468 8.22172C0.82136 8.68605 -0.246463 10.392 0.0489338 12.1258L6.67706 10.35C6.06575 8.70021 4.288 7.75689 2.55468 8.22172Z" fill="#657396"/>
</svg>
