<svg width="15" height="15" viewBox="0 0 15 15" fill="none" xmlns="http://www.w3.org/2000/svg">
<path d="M7.5 15C11.6421 15 15 11.6421 15 7.5C15 3.35786 11.6421 0 7.5 0C3.35786 0 0 3.35786 0 7.5C0 11.6421 3.35786 15 7.5 15Z" fill="white"/>
<path d="M5.73476 6.49417C5.58192 6.64804 5.56329 6.89012 5.69079 7.06572C5.99079 7.47822 6.32287 7.86641 6.68389 8.22693C7.08681 8.63117 7.52465 8.99891 7.99253 9.32607C8.16813 9.44917 8.40711 9.42849 8.55889 9.27693L9.39166 8.44417C9.62079 8.21504 9.99268 8.21504 10.2218 8.44417L11.6753 9.89762C11.9044 10.1267 11.9044 10.4986 11.6753 10.7278L11.2822 11.1209C10.7093 11.6997 9.87582 11.9371 9.08392 11.7468C8.34919 11.552 7.65066 11.2401 7.01495 10.8235C6.42968 10.4526 5.88684 10.0192 5.39597 9.53041C4.94468 9.08144 4.53916 8.58852 4.18563 8.05886C3.79666 7.48575 3.48866 6.8617 3.27011 6.20454C3.00139 5.36686 3.22408 4.44928 3.84684 3.8278L4.30461 3.36228C4.53374 3.13315 4.90563 3.13315 5.13479 3.36228L6.58824 4.81572C6.81737 5.04486 6.81737 5.41675 6.58824 5.64591L5.73476 6.49417Z" fill="#33C759"/>
</svg>