<svg width="21" height="20" viewBox="0 0 21 20" fill="none" xmlns="http://www.w3.org/2000/svg">
<path d="M19.5561 8.78786L12.0441 1.27582C10.343 -0.425274 7.5736 -0.425274 5.8725 1.27582C4.17141 2.97822 4.17141 5.74633 5.8725 7.44872L13.3839 14.9595C15.0856 16.6606 17.8544 16.6606 19.5561 14.9595C21.2572 13.2584 21.2572 10.489 19.5561 8.78786ZM18.6369 14.0402C17.4416 15.2355 15.4977 15.2355 14.3025 14.0402L10.6242 10.362L14.958 6.02756L18.6369 9.70708C19.8322 10.901 19.8322 12.845 18.6369 14.0402Z" fill="#22335E"/>
<path d="M0.289062 17.0042C1.10478 19.204 3.47512 20.4617 5.78556 19.842C8.096 19.2229 9.51977 16.9482 9.12721 14.6365L0.289062 17.0042Z" fill="#22335E"/>
<path d="M3.40624 10.9624C1.09515 11.5815 -0.328618 13.8561 0.065245 16.1679L8.90274 13.8001C8.08767 11.6004 5.71734 10.3426 3.40624 10.9624Z" fill="#22335E"/>
</svg>
