<svg width="22" height="11" viewBox="0 0 22 11" fill="none" xmlns="http://www.w3.org/2000/svg">
<path d="M19.381 0C18.2239 0 17.2857 0.938143 17.2857 2.09524C17.2857 2.34876 17.3381 2.58867 17.4203 2.8139L13.8139 6.42033C13.5887 6.3381 13.3488 6.28571 13.0952 6.28571C12.915 6.28571 12.7432 6.31557 12.5767 6.35852L10.264 4.04591C10.396 3.77143 10.4762 3.46762 10.4762 3.14286C10.4762 1.98576 9.53805 1.04762 8.38095 1.04762C7.22386 1.04762 6.28571 1.98576 6.28571 3.14286C6.28571 3.39638 6.33757 3.63629 6.42033 3.86152L3.168 7.11386C2.85319 6.92476 2.48914 6.80952 2.09524 6.80952C0.938143 6.80952 0 7.74767 0 8.90476C0 10.0619 0.938143 11 2.09524 11C3.25233 11 4.19048 10.0619 4.19048 8.90476C4.19048 8.72457 4.16062 8.55276 4.11767 8.38619L7.4779 5.02595C7.75238 5.15795 8.05619 5.2381 8.38095 5.2381C8.63448 5.2381 8.87438 5.18624 9.09962 5.10348L11.3043 7.30819C11.1158 7.623 11 7.98705 11 8.38095C11 9.53805 11.9381 10.4762 13.0952 10.4762C14.2523 10.4762 15.1905 9.53805 15.1905 8.38095C15.1905 8.05619 15.1103 7.75238 14.9783 7.47791L18.4784 3.97781C18.7524 4.11033 19.0562 4.19048 19.381 4.19048C20.538 4.19048 21.4762 3.25233 21.4762 2.09524C21.4762 0.938143 20.538 0 19.381 0Z" fill="white"/>
</svg>
