<svg width="814" height="647" viewBox="0 0 814 647" fill="none" xmlns="http://www.w3.org/2000/svg">
<path d="M317.561 226.314C358.002 243.291 387.887 289.801 389.236 335.645C390.505 381.57 363.234 426.734 334.276 465.654C305.404 504.488 274.849 536.992 237.274 551.269C199.624 565.537 154.882 561.573 122.802 541.645C90.807 521.792 71.5587 485.915 50.1952 450.455C28.8367 415.086 5.53934 380.049 0.89598 338.259C-3.833 296.554 10.1827 247.93 42.3488 229.523C74.5149 211.115 124.741 222.94 175.395 222.517C226.049 222.094 277.04 209.433 317.561 226.314Z" fill="white"/>
<path d="M441.751 321.978C468.285 356.901 470.911 412.121 449.158 452.498C427.294 492.905 381.095 518.383 336.557 537.61C292.135 556.805 249.423 569.676 209.743 563.253C170.003 556.784 133.237 530.981 115.419 497.682C97.6368 464.492 98.9062 423.797 98.1347 382.406C97.3223 341.096 94.6645 299.105 111.538 260.592C128.295 222.11 164.745 187.008 201.806 187.15C238.866 187.292 276.45 222.645 320.53 247.606C364.609 272.567 415.099 287.098 441.751 321.978Z" fill="#D3E2F2"/>
<path d="M441.751 321.978C468.285 356.901 470.911 412.121 449.158 452.498C427.294 492.905 381.095 518.383 336.557 537.61C292.135 556.805 249.423 569.676 209.743 563.253C170.003 556.784 133.237 530.981 115.419 497.682C97.6368 464.492 98.9062 423.797 98.1347 382.406C97.3223 341.096 94.6645 299.105 111.538 260.592C128.295 222.11 164.745 187.008 201.806 187.15C238.866 187.292 276.45 222.645 320.53 247.606C364.609 272.567 415.099 287.098 441.751 321.978Z" fill="#D3E2F2"/>
<path d="M441.751 321.978C468.285 356.901 470.911 412.121 449.158 452.498C427.294 492.905 381.095 518.383 336.557 537.61C292.135 556.805 249.423 569.676 209.743 563.253C170.003 556.784 133.237 530.981 115.419 497.682C97.6368 464.492 98.9062 423.797 98.1347 382.406C97.3223 341.096 94.6645 299.105 111.538 260.592C128.295 222.11 164.745 187.008 201.806 187.15C238.866 187.292 276.45 222.645 320.53 247.606C364.609 272.567 415.099 287.098 441.751 321.978Z" fill="#D3E2F2"/>
<path d="M549.093 556.134C517.669 527.696 495.724 451.265 496.379 376.442C497.1 301.488 520.42 228.296 544.844 165.325C569.196 102.492 594.643 50.0176 624.971 27.4093C655.359 4.8189 690.683 12.1035 715.368 45.2046C739.988 78.1807 753.899 137.07 769.503 195.317C785.106 253.415 802.259 311.006 804.369 379.276C806.549 447.407 793.608 526.486 767.413 555.931C741.218 585.376 701.842 565.164 661.665 564.928C621.489 564.693 580.585 584.418 549.093 556.134Z" fill="#D3E2F2"/>
<path d="M624.483 254.121C607.87 237.241 589.033 222.71 568.492 210.929V562.369C615.403 512.079 668.936 477.824 684.835 429.1C702.323 375.514 674.15 304.551 624.483 254.121Z" fill="white"/>
<path d="M556.486 13.2422H315.557C296.153 13.2422 280.423 28.983 280.423 48.4002V529.68C280.423 549.098 296.153 564.838 315.557 564.838H556.486C575.889 564.838 591.619 549.098 591.619 529.68V48.4002C591.619 28.983 575.889 13.2422 556.486 13.2422Z" fill="white" stroke="black" stroke-width="12" stroke-miterlimit="10"/>
<path d="M491.822 13.085C491.869 13.55 491.891 14.0172 491.888 14.4847V22.7669C491.889 24.5611 491.537 26.3379 490.852 27.9959C490.166 29.6538 489.161 31.1604 487.894 32.4295C486.626 33.6986 485.121 34.7053 483.465 35.3922C481.808 36.079 480.033 36.4326 478.24 36.4326H393.82C392.026 36.4336 390.249 36.081 388.591 35.3947C386.933 34.7084 385.427 33.702 384.158 32.4329C382.889 31.1638 381.882 29.657 381.196 27.9984C380.509 26.3399 380.155 24.5622 380.155 22.7669V14.4847C380.155 14.0623 380.155 13.6564 380.213 13.2423" fill="black"/>
<path d="M336.577 130.35C347.563 130.35 356.469 121.444 356.469 110.457C356.469 99.4708 347.563 90.5645 336.577 90.5645C325.59 90.5645 316.684 99.4708 316.684 110.457C316.684 121.444 325.59 130.35 336.577 130.35Z" fill="#FF4B33"/>
<path d="M374.6 102.147H554.895" stroke="#FF4B33" stroke-width="3" stroke-miterlimit="10" stroke-linecap="round"/>
<path d="M374.6 118.767H434.53" stroke="#FF4B33" stroke-width="3" stroke-miterlimit="10" stroke-linecap="round"/>
<path d="M336.577 258.464C347.563 258.464 356.469 249.558 356.469 238.571C356.469 227.585 347.563 218.678 336.577 218.678C325.59 218.678 316.684 227.585 316.684 238.571C316.684 249.558 325.59 258.464 336.577 258.464Z" fill="#FF4B33"/>
<path d="M374.6 230.261H554.895" stroke="#FF4B33" stroke-width="3" stroke-miterlimit="10" stroke-linecap="round"/>
<path d="M374.6 246.881H434.53" stroke="#FF4B33" stroke-width="3" stroke-miterlimit="10" stroke-linecap="round"/>
<path d="M336.577 194.314C347.563 194.314 356.469 185.408 356.469 174.421C356.469 163.435 347.563 154.528 336.577 154.528C325.59 154.528 316.684 163.435 316.684 174.421C316.684 185.408 325.59 194.314 336.577 194.314Z" fill="#FF4B33"/>
<path d="M374.6 166.111H554.895" stroke="#FF4B33" stroke-width="3" stroke-miterlimit="10" stroke-linecap="round"/>
<path d="M374.6 182.731H434.53" stroke="#FF4B33" stroke-width="3" stroke-miterlimit="10" stroke-linecap="round"/>
<g clip-path="url(#clip0)">
<path d="M181.962 317.648C182.264 323.748 181.962 554.815 181.962 554.815H198.081L222.737 402.965C223.049 398.042 227.543 343.616 227.543 343.616L199.165 314.46L181.962 317.648Z" fill="#1E266D"/>
<path d="M247.108 316C247.108 316 265.577 434.186 265.577 438.997C265.577 443.809 235.339 552.837 235.339 552.837H219.824L233.022 427.132L187.771 320.793" fill="#1E266D"/>
<path d="M170.252 271.29C169.41 272.514 164.112 284.877 164.512 289.744C165.126 297.189 170.234 301.306 178.97 305.824C181.482 305.824 184.162 276.804 184.162 276.804L176.305 271.29H170.252Z" fill="#FAD2BB"/>
<path d="M187.772 239.003C176.007 248.095 166.028 265.99 167.968 269.285C168.899 270.825 173.746 273.57 179.282 276.064" fill="#FF4B33"/>
<path d="M235.818 190.541C239.241 176.529 233.069 162.984 222.032 160.287C210.995 157.59 199.274 166.762 195.851 180.774C192.428 194.786 198.6 208.331 209.637 211.029C220.673 213.726 232.395 204.553 235.818 190.541Z" fill="#FAD2BB"/>
<path d="M214.535 216.431C240.702 216.431 251.393 310.282 247.099 316.005C241.242 323.813 199.337 330.099 181.971 317.652C175.29 312.883 174.276 216.431 214.535 216.431Z" fill="#FF4B33"/>
<path d="M181.962 554.814V565.902H219.825V559.64L198.081 554.814" fill="black"/>
<path d="M219.824 552.837V565.902H259.478V560.821L235.357 552.837" fill="black"/>
<path d="M251.649 265.288C252.384 266.069 258.743 275.352 259.632 277.334C261.404 275.822 318.322 228.092 319.257 227.445C320.192 226.798 321.811 226.854 322.444 227.282C322.957 227.618 323.329 228.13 323.489 228.722C323.649 229.314 323.587 229.944 323.314 230.493C322.811 231.423 315.735 237.649 315.735 237.649C316.312 238.37 319.266 245.861 315.484 249.379C312.912 251.775 309.995 252.571 307.19 251.087C305.329 253.101 260.846 302.27 253.087 302.27C249.495 302.27 237.177 289.627 231.622 280.103" fill="#FAD2BB"/>
<path d="M212.32 244.34C212.32 259.695 224.416 281.098 228.602 281.098C232.789 281.098 253.723 265.744 253.723 262.021C253.723 258.299 237.441 230.846 223.485 230.846C217.903 230.846 212.32 236.895 212.32 244.34Z" fill="#FF4B33"/>
<path d="M210.925 182.925C218.946 182.985 233.506 167.249 233.506 166.64C233.506 165.244 231.032 157.869 216.671 157.869C206.413 157.869 190.275 165.053 190.275 188.648C190.275 200.797 185.525 213.774 185.525 219.637C185.525 228.547 192.703 234.164 204.04 234.164C209.516 234.164 217.75 231.465 217.75 227.035C217.75 220.558 224.393 199.513 211.702 194.93" fill="black"/>
<path d="M213.149 194.288C212.389 194.782 211.502 195.047 210.595 195.051C207.697 195.051 205.348 192.333 205.348 188.979C205.348 185.624 207.697 182.93 210.595 182.93C211.138 182.929 211.676 183.024 212.186 183.209" fill="#FAD2BB"/>
<path fill-rule="evenodd" clip-rule="evenodd" d="M94.7546 450.005L85.7852 453.595L87.16 444.027L88.5349 434.458L96.1244 440.426L103.719 446.394L94.7546 450.005Z" fill="#1E266D"/>
<path d="M338.48 322.614C349.466 322.614 358.373 313.708 358.373 302.721C358.373 291.735 349.466 282.828 338.48 282.828C327.493 282.828 318.587 291.735 318.587 302.721C318.587 313.708 327.493 322.614 338.48 322.614Z" fill="#FF4B33"/>
<path d="M376.503 294.411H556.798" stroke="#FF4B33" stroke-width="3" stroke-miterlimit="10" stroke-linecap="round"/>
<path d="M376.503 311.031H436.434" stroke="#FF4B33" stroke-width="3" stroke-miterlimit="10" stroke-linecap="round"/>
<path d="M338.48 386.763C349.466 386.763 358.373 377.857 358.373 366.87C358.373 355.884 349.466 346.978 338.48 346.978C327.493 346.978 318.587 355.884 318.587 366.87C318.587 377.857 327.493 386.763 338.48 386.763Z" fill="#FED385"/>
<path d="M376.503 358.561H556.798" stroke="#FED385" stroke-width="3" stroke-miterlimit="10" stroke-linecap="round"/>
<path d="M376.503 375.18H436.434" stroke="#FED385" stroke-width="3" stroke-miterlimit="10" stroke-linecap="round"/>
<path d="M338.48 450.913C349.466 450.913 358.373 442.007 358.373 431.02C358.373 420.034 349.466 411.127 338.48 411.127C327.493 411.127 318.587 420.034 318.587 431.02C318.587 442.007 327.493 450.913 338.48 450.913Z" fill="#FED385"/>
<path d="M376.503 422.711H556.798" stroke="#FED385" stroke-width="3" stroke-miterlimit="10" stroke-linecap="round"/>
<path d="M376.503 439.33H436.434" stroke="#FED385" stroke-width="3" stroke-miterlimit="10" stroke-linecap="round"/>
</g>
<g clip-path="url(#clip1)">
<path d="M620.78 380.37C621.354 383.313 620.518 404.346 621.358 407.672C622.198 410.998 631.482 451.638 631.482 451.638L616.19 447.258C616.19 447.258 610.919 435.373 609.063 424.698C607.43 415.302 607.98 380.422 620.78 380.37Z" fill="#FAD2BB"/>
<path d="M635.578 389.787L645.524 389.874L651.408 368.271L641.458 368.185L635.578 389.787Z" fill="black"/>
<path d="M511.25 448.916L613.91 449.81C616.672 449.834 618.891 452.092 618.867 454.853L617.897 566.11C617.873 568.871 615.615 571.09 612.854 571.066L510.194 570.172C507.433 570.148 505.214 567.89 505.238 565.129L506.207 453.872C506.231 451.111 508.489 448.892 511.25 448.916Z" fill="#DEDEDE"/>
<path d="M594.017 482.166C588.003 482.114 583.17 477.185 583.223 471.157C583.275 465.129 588.193 460.285 594.207 460.337C600.221 460.39 605.054 465.319 605.002 471.347C604.949 477.375 600.031 482.219 594.017 482.166Z" fill="#A4A4A4"/>
<path d="M649.27 537.538L651.099 550.646L637.299 552.619L637.089 537.142L649.27 537.538Z" fill="#FAD2BB"/>
<path d="M593.457 443.152C597.451 442.465 665.412 441.747 667.01 444.858C680.143 470.376 653.562 536.33 651.047 538.719C647.736 538.679 636.175 537.388 636.175 537.388L629.955 498.888L593.457 443.152Z" fill="#13D6C3"/>
<path d="M636.659 548.322L655.392 546.724L684.804 555.07L684.987 561.595L637.799 563.973L636.659 548.322Z" fill="black"/>
<path d="M557.804 427.145C555.323 429.34 553.071 438.802 552.911 441.982C551.309 478.859 612.645 497.563 621.17 500.787C629.418 507.046 701.026 554.789 705.299 555.794C709.571 556.8 715.679 540.25 714.971 538.112C714.263 535.974 607.992 438.774 607.992 438.774L557.804 427.145Z" fill="#13D6C3"/>
<path d="M607.016 358.512C615.592 354.357 623.286 377.621 622.505 380.27C621.723 382.919 613.878 383.611 611.894 383.593C609.91 383.576 607.016 358.512 607.016 358.512Z" fill="#FF4B33"/>
<path d="M590.758 345.064C559.589 344.792 556 419.246 556.308 424.331C559.366 434.716 597.013 447.488 608.694 440.78C627.512 397.601 619.472 345.314 590.758 345.064Z" fill="#FF4B33"/>
<path d="M559.344 381.514C557.576 384.477 553.66 403.852 554.013 406.387C554.365 408.922 560.107 415.362 562.169 415.522C591.487 417.774 623.406 406.302 629.382 403.053C641.832 402.167 649.234 397.728 649.291 391.144C649.325 387.256 647.198 384.435 646.012 384.425C643.764 384.406 639.736 388.255 639.241 389.386C640.228 387.397 643.302 383.756 640.798 383.735C640.101 383.728 634.38 391.598 631.295 393.493C628.21 395.389 583.911 396.616 575.004 399.773C576.157 397.52 579.403 389.347 579.466 388.163C579.529 386.979 559.344 381.514 559.344 381.514Z" fill="#FAD2BB"/>
<path d="M646.274 332.953L662.832 336.402C664.663 336.783 665.839 338.58 665.459 340.415L662.017 357.012C661.637 358.847 659.844 360.026 658.013 359.644L641.455 356.196C639.624 355.814 638.448 354.018 638.829 352.183L642.27 335.586C642.65 333.751 644.443 332.572 646.274 332.953Z" fill="#13D6C3"/>
<path d="M648.598 363.364L646.588 357.257L652.873 358.566L648.598 363.364Z" fill="#13D6C3"/>
<path d="M581.744 350.921C568.292 345.845 557.351 377.002 557.753 380.965C558.155 384.928 579.701 392.05 582.147 390.639C584.593 389.229 595.077 355.951 581.744 350.921Z" fill="#FF4B33"/>
<path d="M589.995 331.504C590.124 333.383 588.891 343.868 587.075 347.277C587.851 348.84 595.923 353.431 599.816 352.497C600.37 349.594 601.845 341.798 603.016 339.431C600.949 338.326 589.995 331.504 589.995 331.504Z" fill="#FAD2BB"/>
<path d="M599.883 340.701C590.458 338.107 585.448 326.405 588.693 314.565C591.938 302.725 602.209 295.231 611.633 297.825C621.058 300.42 626.068 312.121 622.823 323.961C619.578 335.801 609.307 343.296 599.883 340.701Z" fill="#FAD2BB"/>
<path d="M597.449 318.899C598.427 318.961 602.178 317.084 603.057 311.365C605.754 310.946 617.62 312.318 623.802 317.29C626.1 318.194 627.963 318.948 631.45 318.979C633.104 318.993 634.521 317.273 634.531 316.084C634.559 312.81 633.185 309.625 629.091 309.377C632.54 309.332 635.754 307.226 635.768 305.653C635.786 303.563 631.103 297.11 622.812 299.848C624.764 298.46 626.967 297.109 626.979 295.779C626.999 293.503 623.751 291.265 618.038 291.216C609.198 291.139 599.533 294.727 597.43 297.338C596.464 296.826 595.238 295.878 592.875 295.857C586.985 295.806 584.843 314.914 587.336 321.348C587.963 321.759 588.667 322.041 589.405 322.174" fill="#1E266D"/>
<path d="M597.622 319.32C597.337 318.484 596.805 317.754 596.097 317.228C595.389 316.701 594.538 316.402 593.656 316.372C592.775 316.341 591.905 316.579 591.162 317.055C590.419 317.53 589.837 318.221 589.495 319.036C589.152 319.85 589.064 320.75 589.243 321.615C589.422 322.481 589.859 323.271 590.496 323.882C591.133 324.493 591.941 324.896 592.811 325.036C593.682 325.177 594.574 325.049 595.371 324.67" fill="#FAD2BB"/>
<path d="M721.894 545.827L711.783 539.875L705.253 551.617L717.039 557.58L721.894 545.827Z" fill="#FAD2BB"/>
<path d="M714.029 559.383L722.289 542.458L744.548 521.48L750.221 524.676L728.001 566.464L714.029 559.383Z" fill="black"/>
<path d="M654.634 338.393L650.863 354.232" stroke="white" stroke-width="8" stroke-miterlimit="10"/>
<path d="M644.831 344.43L660.666 348.2" stroke="white" stroke-width="8" stroke-miterlimit="10"/>
</g>
<path fill-rule="evenodd" clip-rule="evenodd" d="M224.018 83.2822L217.471 76.1913L226.888 74.061L236.311 71.9307L233.44 81.157L230.575 90.3832L224.018 83.2822Z" fill="#13D6C3"/>
<path fill-rule="evenodd" clip-rule="evenodd" d="M670.727 121.87C670.725 120.162 671.229 118.492 672.177 117.071C673.124 115.65 674.472 114.542 676.049 113.887C677.627 113.232 679.363 113.06 681.038 113.393C682.714 113.725 684.253 114.547 685.461 115.754C686.669 116.961 687.491 118.5 687.825 120.175C688.158 121.85 687.987 123.586 687.333 125.164C686.679 126.742 685.572 128.09 684.152 129.039C682.731 129.987 681.061 130.493 679.354 130.492C677.066 130.492 674.873 129.583 673.255 127.967C671.637 126.35 670.728 124.157 670.727 121.87Z" fill="#1E266D"/>
<path fill-rule="evenodd" clip-rule="evenodd" d="M713.028 15.5467L704.059 19.1375L705.433 9.56875L706.808 0L714.398 5.96788L721.992 11.9358L713.028 15.5467Z" fill="#FF4B33"/>
<path d="M63.4561 298.142C63.4561 296.549 63.9286 294.991 64.8141 293.666C65.6995 292.341 66.9579 291.308 68.4303 290.698C69.9027 290.088 71.5229 289.928 73.086 290.239C74.649 290.55 76.0848 291.318 77.2117 292.445C78.3387 293.572 79.1061 295.007 79.417 296.57C79.7279 298.133 79.5684 299.754 78.9585 301.226C78.3486 302.698 77.3158 303.957 75.9907 304.842C74.6656 305.728 73.1077 306.2 71.514 306.2C69.3769 306.2 67.3273 305.351 65.8162 303.84C64.305 302.329 63.4561 300.279 63.4561 298.142Z" stroke="#FF4B33" stroke-width="3.11" stroke-linecap="round" stroke-linejoin="round"/>
<path fill-rule="evenodd" clip-rule="evenodd" d="M728.736 270.015C728.735 268.308 729.24 266.64 730.187 265.22C731.134 263.8 732.481 262.693 734.057 262.038C735.633 261.384 737.368 261.211 739.042 261.542C740.716 261.873 742.255 262.692 743.463 263.897C744.672 265.102 745.496 266.638 745.832 268.312C746.167 269.985 746 271.72 745.35 273.298C744.699 274.876 743.596 276.226 742.179 277.177C740.762 278.128 739.095 278.638 737.388 278.642C736.253 278.645 735.129 278.425 734.079 277.993C733.03 277.56 732.076 276.926 731.272 276.124C730.468 275.323 729.831 274.371 729.395 273.322C728.96 272.274 728.736 271.15 728.736 270.015Z" fill="#13D6C3"/>
<path d="M143.688 169.719H85.6157C82.278 169.719 79.5723 172.425 79.5723 175.763V203.89C79.5723 207.227 82.278 209.933 85.6157 209.933H143.688C147.026 209.933 149.731 207.227 149.731 203.89V175.763C149.731 172.425 147.026 169.719 143.688 169.719Z" fill="white" stroke="#13D6C3" stroke-width="2" stroke-miterlimit="10"/>
<path d="M114.649 181.685V197.967" stroke="#13D6C3" stroke-width="8" stroke-miterlimit="10"/>
<path d="M106.511 189.829H122.788" stroke="#13D6C3" stroke-width="8" stroke-miterlimit="10"/>
<path d="M135.132 181.172C135.749 181.172 136.25 180.671 136.25 180.054C136.25 179.436 135.749 178.936 135.132 178.936C134.514 178.936 134.014 179.436 134.014 180.054C134.014 180.671 134.514 181.172 135.132 181.172Z" stroke="#13D6C3" stroke-width="2" stroke-miterlimit="10"/>
<path d="M142.747 179.827C144.048 179.827 145.104 178.772 145.104 177.47C145.104 176.169 144.048 175.113 142.747 175.113C141.445 175.113 140.39 176.169 140.39 177.47C140.39 178.772 141.445 179.827 142.747 179.827Z" stroke="#13D6C3" stroke-width="2" stroke-miterlimit="10"/>
<path d="M139.055 202.616C139.87 202.616 140.53 201.955 140.53 201.14C140.53 200.325 139.87 199.665 139.055 199.665C138.24 199.665 137.579 200.325 137.579 201.14C137.579 201.955 138.24 202.616 139.055 202.616Z" stroke="#13D6C3" stroke-width="2" stroke-miterlimit="10"/>
<path d="M85.1074 183.72H100.866" stroke="#13D6C3" stroke-width="2" stroke-miterlimit="10"/>
<path d="M85.1074 186.771H100.866" stroke="#13D6C3" stroke-width="2" stroke-miterlimit="10"/>
<path d="M85.1074 189.829H100.866" stroke="#13D6C3" stroke-width="2" stroke-miterlimit="10"/>
<path d="M85.1074 192.881H100.866" stroke="#13D6C3" stroke-width="2" stroke-miterlimit="10"/>
<path d="M85.1074 195.938H94.7568" stroke="#13D6C3" stroke-width="2" stroke-miterlimit="10"/>
<path d="M144.429 186.175C144.867 185.511 144.685 184.618 144.022 184.181C143.36 183.743 142.467 183.927 142.029 184.591L136.557 192.879C136.119 193.543 136.301 194.436 136.964 194.873C137.627 195.311 138.519 195.127 138.957 194.463L144.429 186.175Z" stroke="#13D6C3" stroke-width="2" stroke-miterlimit="10"/>
<path d="M140.133 187.462L142.535 189.048" stroke="#13D6C3" stroke-width="2" stroke-miterlimit="10"/>
<path d="M139.055 209.933L174.006 224.805" stroke="#13D6C3" stroke-width="2" stroke-miterlimit="10"/>
<defs>
<clipPath id="clip0">
<rect width="359.584" height="414.478" fill="white" transform="translate(85.7852 151.424)"/>
</clipPath>
<clipPath id="clip1">
<rect width="260.371" height="287.566" fill="white" transform="matrix(-0.999962 -0.00871086 -0.00871086 0.999962 747 292.339)"/>
</clipPath>
</defs>
</svg>
