<svg width="14" height="14" viewBox="0 0 14 14" fill="none" xmlns="http://www.w3.org/2000/svg">
<path d="M7 0C3.14357 0 0 3.14358 0 7C0 10.8564 3.14357 14 7 14C10.8564 14 14 10.8564 14 7C14 3.14358 10.8564 0 7 0ZM7 1.61538C9.9834 1.61538 12.3846 4.01659 12.3846 7C12.3846 9.98332 9.9834 12.3846 7 12.3846C4.0166 12.3846 1.61538 9.98332 1.61538 7C1.61538 4.01659 4.0166 1.61538 7 1.61538ZM7 2.42308C6.55394 2.42308 6.19231 2.78471 6.19231 3.23077V7C6.19231 7.29871 6.35508 7.55857 6.59615 7.6983L9.39785 9.31369C9.78412 9.53672 10.277 9.40555 10.5 9.01923C10.723 8.63291 10.5918 8.14008 10.2055 7.91705L7.80769 6.53724V3.23077C7.80769 2.78471 7.44609 2.42308 7 2.42308Z" fill="#657396"/>
</svg>
