<svg width="154" height="63" viewBox="0 0 154 63" fill="none" xmlns="http://www.w3.org/2000/svg">
<path d="M13.5973 11L16.2853 1.004H14.1293L12.4913 7.892H12.4633L10.7553 1.004H8.69733L6.96133 7.808H6.93333L5.35133 1.004H3.15333L5.79933 11H8.02533L9.69133 4.196H9.71933L11.4133 11H13.5973ZM21.1671 6.604H17.9331C17.9424 6.464 17.9704 6.30533 18.0171 6.128C18.0731 5.95067 18.1617 5.78267 18.2831 5.624C18.4137 5.46533 18.5817 5.33467 18.7871 5.232C19.0017 5.12 19.2677 5.064 19.5851 5.064C20.0704 5.064 20.4297 5.19467 20.6631 5.456C20.9057 5.71733 21.0737 6.1 21.1671 6.604ZM17.9331 7.864H23.1551C23.1924 7.304 23.1457 6.76733 23.0151 6.254C22.8844 5.74067 22.6697 5.28333 22.3711 4.882C22.0817 4.48067 21.7084 4.16333 21.2511 3.93C20.7937 3.68733 20.2571 3.566 19.6411 3.566C19.0904 3.566 18.5864 3.664 18.1291 3.86C17.6811 4.056 17.2937 4.32667 16.9671 4.672C16.6404 5.008 16.3884 5.40933 16.2111 5.876C16.0337 6.34267 15.9451 6.84667 15.9451 7.388C15.9451 7.948 16.0291 8.46133 16.1971 8.928C16.3744 9.39467 16.6217 9.796 16.9391 10.132C17.2564 10.468 17.6437 10.7293 18.1011 10.916C18.5584 11.0933 19.0717 11.182 19.6411 11.182C20.4624 11.182 21.1624 10.9953 21.7411 10.622C22.3197 10.2487 22.7491 9.628 23.0291 8.76H21.2791C21.2137 8.984 21.0364 9.19867 20.7471 9.404C20.4577 9.6 20.1124 9.698 19.7111 9.698C19.1511 9.698 18.7217 9.55333 18.4231 9.264C18.1244 8.97467 17.9611 8.508 17.9331 7.864ZM24.3901 1.004V11H26.3781V1.004H24.3901ZM32.8715 6.31H34.8175C34.7895 5.84333 34.6775 5.442 34.4815 5.106C34.2855 4.76067 34.0288 4.476 33.7115 4.252C33.4035 4.01867 33.0488 3.846 32.6475 3.734C32.2555 3.622 31.8448 3.566 31.4155 3.566C30.8275 3.566 30.3048 3.664 29.8475 3.86C29.3902 4.056 29.0028 4.33133 28.6855 4.686C28.3682 5.03133 28.1255 5.44667 27.9575 5.932C27.7988 6.408 27.7195 6.926 27.7195 7.486C27.7195 8.02733 27.8082 8.52667 27.9855 8.984C28.1628 9.432 28.4102 9.81933 28.7275 10.146C29.0448 10.4727 29.4275 10.7293 29.8755 10.916C30.3328 11.0933 30.8322 11.182 31.3735 11.182C32.3348 11.182 33.1235 10.93 33.7395 10.426C34.3555 9.922 34.7288 9.18933 34.8595 8.228H32.9415C32.8762 8.676 32.7128 9.03533 32.4515 9.306C32.1995 9.56733 31.8355 9.698 31.3595 9.698C31.0515 9.698 30.7902 9.628 30.5755 9.488C30.3608 9.348 30.1882 9.17067 30.0575 8.956C29.9362 8.732 29.8475 8.48467 29.7915 8.214C29.7355 7.94333 29.7075 7.67733 29.7075 7.416C29.7075 7.14533 29.7355 6.87467 29.7915 6.604C29.8475 6.324 29.9408 6.072 30.0715 5.848C30.2115 5.61467 30.3888 5.428 30.6035 5.288C30.8182 5.13867 31.0842 5.064 31.4015 5.064C32.2508 5.064 32.7408 5.47933 32.8715 6.31ZM37.7466 7.388C37.7466 7.09867 37.7746 6.814 37.8306 6.534C37.8866 6.254 37.9799 6.00667 38.1106 5.792C38.2506 5.57733 38.4326 5.40467 38.6566 5.274C38.8806 5.134 39.1606 5.064 39.4966 5.064C39.8326 5.064 40.1126 5.134 40.3366 5.274C40.5699 5.40467 40.7519 5.57733 40.8826 5.792C41.0226 6.00667 41.1206 6.254 41.1766 6.534C41.2326 6.814 41.2606 7.09867 41.2606 7.388C41.2606 7.67733 41.2326 7.962 41.1766 8.242C41.1206 8.51267 41.0226 8.76 40.8826 8.984C40.7519 9.19867 40.5699 9.37133 40.3366 9.502C40.1126 9.63267 39.8326 9.698 39.4966 9.698C39.1606 9.698 38.8806 9.63267 38.6566 9.502C38.4326 9.37133 38.2506 9.19867 38.1106 8.984C37.9799 8.76 37.8866 8.51267 37.8306 8.242C37.7746 7.962 37.7466 7.67733 37.7466 7.388ZM35.7586 7.388C35.7586 7.96667 35.8472 8.48933 36.0246 8.956C36.2019 9.42267 36.4539 9.824 36.7806 10.16C37.1072 10.4867 37.4992 10.7387 37.9566 10.916C38.4139 11.0933 38.9272 11.182 39.4966 11.182C40.0659 11.182 40.5792 11.0933 41.0366 10.916C41.5032 10.7387 41.8999 10.4867 42.2266 10.16C42.5532 9.824 42.8052 9.42267 42.9826 8.956C43.1599 8.48933 43.2486 7.96667 43.2486 7.388C43.2486 6.80933 43.1599 6.28667 42.9826 5.82C42.8052 5.344 42.5532 4.94267 42.2266 4.616C41.8999 4.28 41.5032 4.02333 41.0366 3.846C40.5792 3.65933 40.0659 3.566 39.4966 3.566C38.9272 3.566 38.4139 3.65933 37.9566 3.846C37.4992 4.02333 37.1072 4.28 36.7806 4.616C36.4539 4.94267 36.2019 5.344 36.0246 5.82C35.8472 6.28667 35.7586 6.80933 35.7586 7.388ZM44.5972 3.762V11H46.5852V6.8C46.5852 6.44533 46.6365 6.16067 46.7392 5.946C46.8418 5.722 46.9632 5.554 47.1032 5.442C47.2525 5.32067 47.4018 5.24133 47.5512 5.204C47.7098 5.15733 47.8358 5.134 47.9292 5.134C48.2465 5.134 48.4845 5.19 48.6432 5.302C48.8112 5.40467 48.9278 5.54467 48.9932 5.722C49.0678 5.89933 49.1098 6.09533 49.1192 6.31C49.1285 6.51533 49.1332 6.72533 49.1332 6.94V11H51.1212V6.968C51.1212 6.744 51.1352 6.52467 51.1632 6.31C51.2005 6.086 51.2658 5.89 51.3592 5.722C51.4618 5.54467 51.5972 5.40467 51.7652 5.302C51.9425 5.19 52.1712 5.134 52.4512 5.134C52.7312 5.134 52.9505 5.18067 53.1092 5.274C53.2772 5.36733 53.4032 5.49333 53.4872 5.652C53.5712 5.81067 53.6225 5.99733 53.6412 6.212C53.6598 6.42667 53.6692 6.65533 53.6692 6.898V11H55.6572V6.156C55.6572 5.68933 55.5918 5.29267 55.4612 4.966C55.3305 4.63 55.1485 4.35933 54.9152 4.154C54.6818 3.94867 54.4018 3.79933 54.0752 3.706C53.7485 3.61267 53.3938 3.566 53.0112 3.566C52.5072 3.566 52.0685 3.68733 51.6952 3.93C51.3312 4.17267 51.0418 4.45267 50.8272 4.77C50.6312 4.322 50.3418 4.00933 49.9592 3.832C49.5858 3.65467 49.1705 3.566 48.7132 3.566C48.2372 3.566 47.8125 3.66867 47.4392 3.874C47.0752 4.07933 46.7625 4.36867 46.5012 4.742H46.4732V3.762H44.5972ZM62.1007 6.604H58.8667C58.876 6.464 58.904 6.30533 58.9507 6.128C59.0067 5.95067 59.0953 5.78267 59.2167 5.624C59.3473 5.46533 59.5153 5.33467 59.7207 5.232C59.9353 5.12 60.2013 5.064 60.5187 5.064C61.004 5.064 61.3633 5.19467 61.5967 5.456C61.8393 5.71733 62.0073 6.1 62.1007 6.604ZM58.8667 7.864H64.0887C64.126 7.304 64.0793 6.76733 63.9487 6.254C63.818 5.74067 63.6033 5.28333 63.3047 4.882C63.0153 4.48067 62.642 4.16333 62.1847 3.93C61.7273 3.68733 61.1907 3.566 60.5747 3.566C60.024 3.566 59.52 3.664 59.0627 3.86C58.6147 4.056 58.2273 4.32667 57.9007 4.672C57.574 5.008 57.322 5.40933 57.1447 5.876C56.9673 6.34267 56.8787 6.84667 56.8787 7.388C56.8787 7.948 56.9627 8.46133 57.1307 8.928C57.308 9.39467 57.5553 9.796 57.8727 10.132C58.19 10.468 58.5773 10.7293 59.0347 10.916C59.492 11.0933 60.0053 11.182 60.5747 11.182C61.396 11.182 62.096 10.9953 62.6747 10.622C63.2533 10.2487 63.6827 9.628 63.9627 8.76H62.2127C62.1473 8.984 61.97 9.19867 61.6807 9.404C61.3913 9.6 61.046 9.698 60.6447 9.698C60.0847 9.698 59.6553 9.55333 59.3567 9.264C59.058 8.97467 58.8947 8.508 58.8667 7.864ZM71.6842 3.762V1.592H69.6962V3.762H68.4922V5.092H69.6962V9.362C69.6962 9.726 69.7569 10.02 69.8782 10.244C69.9995 10.468 70.1629 10.6407 70.3682 10.762C70.5829 10.8833 70.8255 10.9627 71.0962 11C71.3762 11.0467 71.6702 11.07 71.9782 11.07C72.1742 11.07 72.3749 11.0653 72.5802 11.056C72.7855 11.0467 72.9722 11.028 73.1402 11V9.46C73.0469 9.47867 72.9489 9.49267 72.8462 9.502C72.7435 9.51133 72.6362 9.516 72.5242 9.516C72.1882 9.516 71.9642 9.46 71.8522 9.348C71.7402 9.236 71.6842 9.012 71.6842 8.676V5.092H73.1402V3.762H71.6842ZM75.8501 7.388C75.8501 7.09867 75.8781 6.814 75.9341 6.534C75.9901 6.254 76.0834 6.00667 76.2141 5.792C76.3541 5.57733 76.5361 5.40467 76.7601 5.274C76.9841 5.134 77.2641 5.064 77.6001 5.064C77.9361 5.064 78.2161 5.134 78.4401 5.274C78.6734 5.40467 78.8554 5.57733 78.9861 5.792C79.1261 6.00667 79.2241 6.254 79.2801 6.534C79.3361 6.814 79.3641 7.09867 79.3641 7.388C79.3641 7.67733 79.3361 7.962 79.2801 8.242C79.2241 8.51267 79.1261 8.76 78.9861 8.984C78.8554 9.19867 78.6734 9.37133 78.4401 9.502C78.2161 9.63267 77.9361 9.698 77.6001 9.698C77.2641 9.698 76.9841 9.63267 76.7601 9.502C76.5361 9.37133 76.3541 9.19867 76.2141 8.984C76.0834 8.76 75.9901 8.51267 75.9341 8.242C75.8781 7.962 75.8501 7.67733 75.8501 7.388ZM73.8621 7.388C73.8621 7.96667 73.9507 8.48933 74.1281 8.956C74.3054 9.42267 74.5574 9.824 74.8841 10.16C75.2107 10.4867 75.6027 10.7387 76.0601 10.916C76.5174 11.0933 77.0307 11.182 77.6001 11.182C78.1694 11.182 78.6827 11.0933 79.1401 10.916C79.6067 10.7387 80.0034 10.4867 80.3301 10.16C80.6567 9.824 80.9087 9.42267 81.0861 8.956C81.2634 8.48933 81.3521 7.96667 81.3521 7.388C81.3521 6.80933 81.2634 6.28667 81.0861 5.82C80.9087 5.344 80.6567 4.94267 80.3301 4.616C80.0034 4.28 79.6067 4.02333 79.1401 3.846C78.6827 3.65933 78.1694 3.566 77.6001 3.566C77.0307 3.566 76.5174 3.65933 76.0601 3.846C75.6027 4.02333 75.2107 4.28 74.8841 4.616C74.5574 4.94267 74.3054 5.344 74.1281 5.82C73.9507 6.28667 73.8621 6.80933 73.8621 7.388Z" fill="black"/>
<path d="M5.64538 40.312C4.79204 39.48 4.12004 38.5093 3.62938 37.4C3.16004 36.2693 2.92538 35.064 2.92538 33.784V30.36C2.92538 29.08 3.17071 27.8853 3.66138 26.776C4.15204 25.6453 4.81338 24.664 5.64538 23.832C6.47738 23 7.44804 22.3387 8.55737 21.848C9.68804 21.3573 10.8934 21.112 12.1734 21.112H30.3814V24.888H12.1734C11.4267 24.888 10.712 25.0373 10.0294 25.336C9.36804 25.6133 8.78138 26.008 8.26938 26.52C7.77871 27.0107 7.38404 27.5867 7.08538 28.248C6.80804 28.9093 6.66938 29.6133 6.66938 30.36V33.784C6.66938 34.5307 6.80804 35.2347 7.08538 35.896C7.38404 36.536 7.77871 37.112 8.26938 37.624C8.76004 38.1147 9.33604 38.5093 9.99738 38.808C10.6587 39.0853 11.3627 39.224 12.1094 39.224H30.3814V43H12.1734C10.8934 43 9.68804 42.7547 8.55737 42.264C7.42671 41.7733 6.45604 41.1227 5.64538 40.312ZM45.3631 43C44.0831 43 42.8778 42.7547 41.7471 42.264C40.6378 41.7733 39.6671 41.112 38.8351 40.28C38.0031 39.448 37.3418 38.4773 36.8511 37.368C36.3605 36.2373 36.1151 35.0427 36.1151 33.784V30.04C36.1151 28.76 36.3605 27.5653 36.8511 26.456C37.3418 25.3253 38.0031 24.344 38.8351 23.512C39.6671 22.68 40.6378 22.0187 41.7471 21.528C42.8778 21.0373 44.0831 20.792 45.3631 20.792H60.7231C62.0031 20.792 63.1978 21.0373 64.3071 21.528C65.4378 22.0187 66.4191 22.68 67.2511 23.512C68.0831 24.344 68.7445 25.3253 69.2351 26.456C69.7258 27.5653 69.9711 28.76 69.9711 30.04V33.784C69.9711 35.0427 69.7258 36.2373 69.2351 37.368C68.7445 38.4773 68.0831 39.448 67.2511 40.28C66.4191 41.112 65.4378 41.7733 64.3071 42.264C63.1978 42.7547 62.0031 43 60.7231 43H45.3631ZM39.8911 33.784C39.8911 34.5307 40.0298 35.2347 40.3071 35.896C40.6058 36.5573 41.0005 37.1333 41.4911 37.624C41.9818 38.1147 42.5578 38.5093 43.2191 38.808C43.9018 39.0853 44.6165 39.224 45.3631 39.224H60.7231C61.4698 39.224 62.1738 39.0853 62.8351 38.808C63.4965 38.5093 64.0725 38.1147 64.5631 37.624C65.0751 37.1333 65.4698 36.5573 65.7471 35.896C66.0458 35.2347 66.1951 34.5307 66.1951 33.784V30.04C66.1951 29.2933 66.0458 28.5893 65.7471 27.928C65.4698 27.2667 65.0751 26.6907 64.5631 26.2C64.0725 25.688 63.4965 25.2933 62.8351 25.016C62.1738 24.7173 61.4698 24.568 60.7231 24.568H45.3631C44.6165 24.568 43.9018 24.7173 43.2191 25.016C42.5578 25.2933 41.9818 25.688 41.4911 26.2C41.0005 26.6907 40.6058 27.2667 40.3071 27.928C40.0298 28.5893 39.8911 29.2933 39.8911 30.04V33.784ZM89.2686 43L72.9166 21.336H77.4926L90.2286 38.264C92.362 35.4693 94.506 32.6427 96.6606 29.784C98.8366 26.9253 100.981 24.1093 103.093 21.336H107.701L91.1886 43H89.2686ZM113.041 43V21.4H116.785V43H113.041ZM142.871 42.776C142.551 42.6053 142.274 42.4347 142.039 42.264C141.805 42.0933 141.527 41.816 141.207 41.432C140.141 40.1947 138.999 38.8613 137.783 37.432C136.567 36.0027 135.33 34.552 134.071 33.08C132.813 31.5867 131.565 30.1253 130.327 28.696C129.111 27.2453 127.981 25.9013 126.935 24.664C126.743 24.4507 126.466 24.344 126.103 24.344C125.826 24.344 125.57 24.4187 125.335 24.568C125.101 24.7173 124.973 24.9413 124.951 25.24V43H121.175V24.984L121.207 24.856C121.25 24.1733 121.421 23.5653 121.719 23.032C122.039 22.4987 122.423 22.0507 122.871 21.688C123.341 21.304 123.863 21.016 124.439 20.824C125.015 20.632 125.591 20.536 126.167 20.536C126.85 20.536 127.511 20.6747 128.151 20.952C128.813 21.2293 129.389 21.6773 129.879 22.296L129.847 22.264C132.237 25.08 134.605 27.8853 136.951 30.68C139.319 33.4533 141.698 36.248 144.087 39.064C144.301 39.2987 144.589 39.416 144.951 39.416C145.207 39.416 145.442 39.3307 145.655 39.16C145.869 38.9893 146.007 38.776 146.071 38.52V20.76H149.879V38.808C149.794 39.4693 149.591 40.0773 149.271 40.632C148.973 41.1653 148.599 41.624 148.151 42.008C147.703 42.392 147.191 42.6907 146.615 42.904C146.061 43.1173 145.495 43.224 144.919 43.224C144.194 43.224 143.501 43.064 142.839 42.744L142.871 42.776Z" fill="black"/>
<path d="M6.3457 60.0938C5.9043 60.0938 5.54102 59.9785 5.25586 59.748C4.9707 59.5176 4.78125 59.1934 4.6875 58.7754H4.65234L4.33008 60H3.86133L5.77734 50.8828H6.33398C5.82227 53.3359 5.50586 54.8027 5.38477 55.2832H5.41992C5.7832 54.6738 6.17188 54.2266 6.58594 53.9414C7 53.6523 7.45117 53.5078 7.93945 53.5078C9.03711 53.5078 9.58594 54.2402 9.58594 55.7051C9.58594 56.498 9.4375 57.2402 9.14062 57.9316C8.84375 58.623 8.45117 59.1562 7.96289 59.5312C7.47461 59.9062 6.93555 60.0938 6.3457 60.0938ZM7.81055 54.0352C7.45508 54.0352 7.10352 54.1562 6.75586 54.3984C6.4082 54.6367 6.09375 54.9668 5.8125 55.3887C5.53516 55.8105 5.32812 56.2695 5.19141 56.7656C5.05469 57.2617 4.98633 57.6641 4.98633 57.9727C4.98633 58.4766 5.11133 58.873 5.36133 59.1621C5.61133 59.4473 5.93555 59.5898 6.33398 59.5898C6.81836 59.5898 7.25586 59.4277 7.64648 59.1035C8.03711 58.7793 8.35742 58.3008 8.60742 57.668C8.85742 57.0352 8.98242 56.4004 8.98242 55.7637C8.98242 55.1699 8.88672 54.7344 8.69531 54.457C8.50391 54.1758 8.20898 54.0352 7.81055 54.0352ZM10.8867 53.6309H11.4727L11.9531 56.8418C12.1523 58.2129 12.2598 59.0898 12.2754 59.4727H12.3398C12.5078 59.0625 12.8711 58.3457 13.4297 57.3223L15.4688 53.6309H16.0723L11.8945 61.1895C11.6133 61.6855 11.373 62.0332 11.1738 62.2324C10.9785 62.4316 10.7559 62.5898 10.5059 62.707C10.2598 62.8242 9.97461 62.8828 9.65039 62.8828C9.38477 62.8828 9.13281 62.8418 8.89453 62.7598V62.2207C9.17188 62.3262 9.43945 62.3789 9.69727 62.3789C10.0098 62.3789 10.2969 62.2812 10.5586 62.0859C10.8203 61.8945 11.0742 61.5742 11.3203 61.125C11.5664 60.6758 11.7617 60.3164 11.9062 60.0469L10.8867 53.6309ZM23.5195 52.2012C22.5781 52.2012 21.834 52.5156 21.2871 53.1445C20.7441 53.7695 20.4727 54.627 20.4727 55.7168C20.4727 56.8379 20.7344 57.7051 21.2578 58.3184C21.7852 58.9277 22.5352 59.2324 23.5078 59.2324C24.1055 59.2324 24.7871 59.125 25.5527 58.9102V59.7832C24.959 60.0059 24.2266 60.1172 23.3555 60.1172C22.0938 60.1172 21.1191 59.7344 20.4316 58.9688C19.748 58.2031 19.4062 57.1152 19.4062 55.7051C19.4062 54.8223 19.5703 54.0488 19.8984 53.3848C20.2305 52.7207 20.707 52.209 21.3281 51.8496C21.9531 51.4902 22.6875 51.3105 23.5312 51.3105C24.4297 51.3105 25.2148 51.4746 25.8867 51.8027L25.4648 52.6582C24.8164 52.3535 24.168 52.2012 23.5195 52.2012ZM28.1895 53.5781V57.7441C28.1895 58.2676 28.3086 58.6582 28.5469 58.916C28.7852 59.1738 29.1582 59.3027 29.666 59.3027C30.3379 59.3027 30.8281 59.1191 31.1367 58.752C31.4492 58.3848 31.6055 57.7852 31.6055 56.9531V53.5781H32.5781V60H31.7754L31.6348 59.1387H31.582C31.3828 59.4551 31.1055 59.6973 30.75 59.8652C30.3984 60.0332 29.9961 60.1172 29.543 60.1172C28.7617 60.1172 28.1758 59.9316 27.7852 59.5605C27.3984 59.1895 27.2051 58.5957 27.2051 57.7793V53.5781H28.1895ZM37.5762 53.4609C37.8613 53.4609 38.1172 53.4844 38.3438 53.5312L38.209 54.4336C37.9434 54.375 37.709 54.3457 37.5059 54.3457C36.9863 54.3457 36.541 54.5566 36.1699 54.9785C35.8027 55.4004 35.6191 55.9258 35.6191 56.5547V60H34.6465V53.5781H35.4492L35.5605 54.7676H35.6074C35.8457 54.3496 36.1328 54.0273 36.4688 53.8008C36.8047 53.5742 37.1738 53.4609 37.5762 53.4609ZM40.5176 60H39.5449V53.5781H40.5176V60ZM39.4629 51.8379C39.4629 51.6152 39.5176 51.4531 39.627 51.3516C39.7363 51.2461 39.873 51.1934 40.0371 51.1934C40.1934 51.1934 40.3281 51.2461 40.4414 51.3516C40.5547 51.457 40.6113 51.6191 40.6113 51.8379C40.6113 52.0566 40.5547 52.2207 40.4414 52.3301C40.3281 52.4355 40.1934 52.4883 40.0371 52.4883C39.873 52.4883 39.7363 52.4355 39.627 52.3301C39.5176 52.2207 39.4629 52.0566 39.4629 51.8379ZM46.6875 60H42.0293V59.3379L45.5332 54.334H42.2461V53.5781H46.5996V54.334L43.1426 59.2441H46.6875V60ZM56.3789 60V55.8223C56.3789 55.3105 56.2695 54.9277 56.0508 54.6738C55.832 54.416 55.4922 54.2871 55.0312 54.2871C54.4258 54.2871 53.9785 54.4609 53.6895 54.8086C53.4004 55.1562 53.2559 55.6914 53.2559 56.4141V60H52.2832V55.8223C52.2832 55.3105 52.1738 54.9277 51.9551 54.6738C51.7363 54.416 51.3945 54.2871 50.9297 54.2871C50.3203 54.2871 49.873 54.4707 49.5879 54.8379C49.3066 55.2012 49.166 55.7988 49.166 56.6309V60H48.1934V53.5781H48.9844L49.1426 54.457H49.1895C49.373 54.1445 49.6309 53.9004 49.9629 53.7246C50.2988 53.5488 50.6738 53.4609 51.0879 53.4609C52.0918 53.4609 52.748 53.8242 53.0566 54.5508H53.1035C53.2949 54.2148 53.5723 53.9492 53.9355 53.7539C54.2988 53.5586 54.7129 53.4609 55.1777 53.4609C55.9043 53.4609 56.4473 53.6484 56.8066 54.0234C57.1699 54.3945 57.3516 54.9902 57.3516 55.8105V60H56.3789ZM64.9043 56.7832C64.9043 57.8301 64.6406 58.6484 64.1133 59.2383C63.5859 59.8242 62.8574 60.1172 61.9277 60.1172C61.3535 60.1172 60.8438 59.9824 60.3984 59.7129C59.9531 59.4434 59.6094 59.0566 59.3672 58.5527C59.125 58.0488 59.0039 57.459 59.0039 56.7832C59.0039 55.7363 59.2656 54.9219 59.7891 54.3398C60.3125 53.7539 61.0391 53.4609 61.9688 53.4609C62.8672 53.4609 63.5801 53.7598 64.1074 54.3574C64.6387 54.9551 64.9043 55.7637 64.9043 56.7832ZM60.0117 56.7832C60.0117 57.6035 60.1758 58.2285 60.5039 58.6582C60.832 59.0879 61.3145 59.3027 61.9512 59.3027C62.5879 59.3027 63.0703 59.0898 63.3984 58.6641C63.7305 58.2344 63.8965 57.6074 63.8965 56.7832C63.8965 55.9668 63.7305 55.3477 63.3984 54.9258C63.0703 54.5 62.584 54.2871 61.9395 54.2871C61.3027 54.2871 60.8223 54.4961 60.498 54.9141C60.1738 55.332 60.0117 55.9551 60.0117 56.7832Z" fill="black"/>
</svg>
