<svg width="204" height="25" viewBox="0 0 204 25" fill="none" xmlns="http://www.w3.org/2000/svg">
<path d="M5.536 21.312C4.68267 20.48 4.01067 19.5093 3.52 18.4C3.05067 17.2693 2.816 16.064 2.816 14.784V11.36C2.816 10.08 3.06133 8.88533 3.552 7.776C4.04267 6.64533 4.704 5.664 5.536 4.832C6.368 4 7.33867 3.33867 8.448 2.848C9.57867 2.35733 10.784 2.112 12.064 2.112H30.272V5.888H12.064C11.3173 5.888 10.6027 6.03733 9.92 6.336C9.25867 6.61333 8.672 7.008 8.16 7.52C7.66933 8.01067 7.27467 8.58667 6.976 9.248C6.69867 9.90933 6.56 10.6133 6.56 11.36V14.784C6.56 15.5307 6.69867 16.2347 6.976 16.896C7.27467 17.536 7.66933 18.112 8.16 18.624C8.65067 19.1147 9.22667 19.5093 9.888 19.808C10.5493 20.0853 11.2533 20.224 12 20.224H30.272V24H12.064C10.784 24 9.57867 23.7547 8.448 23.264C7.31733 22.7733 6.34667 22.1227 5.536 21.312ZM45.2538 24C43.9738 24 42.7684 23.7547 41.6378 23.264C40.5284 22.7733 39.5578 22.112 38.7258 21.28C37.8938 20.448 37.2324 19.4773 36.7418 18.368C36.2511 17.2373 36.0058 16.0427 36.0058 14.784V11.04C36.0058 9.76 36.2511 8.56533 36.7418 7.456C37.2324 6.32533 37.8938 5.344 38.7258 4.512C39.5578 3.68 40.5284 3.01867 41.6378 2.528C42.7684 2.03733 43.9738 1.792 45.2538 1.792H60.6138C61.8938 1.792 63.0884 2.03733 64.1978 2.528C65.3284 3.01867 66.3098 3.68 67.1418 4.512C67.9738 5.344 68.6351 6.32533 69.1258 7.456C69.6164 8.56533 69.8618 9.76 69.8618 11.04V14.784C69.8618 16.0427 69.6164 17.2373 69.1258 18.368C68.6351 19.4773 67.9738 20.448 67.1418 21.28C66.3098 22.112 65.3284 22.7733 64.1978 23.264C63.0884 23.7547 61.8938 24 60.6138 24H45.2538ZM39.7818 14.784C39.7818 15.5307 39.9204 16.2347 40.1978 16.896C40.4964 17.5573 40.8911 18.1333 41.3818 18.624C41.8724 19.1147 42.4484 19.5093 43.1098 19.808C43.7924 20.0853 44.5071 20.224 45.2538 20.224H60.6138C61.3604 20.224 62.0644 20.0853 62.7258 19.808C63.3871 19.5093 63.9631 19.1147 64.4538 18.624C64.9658 18.1333 65.3604 17.5573 65.6378 16.896C65.9364 16.2347 66.0858 15.5307 66.0858 14.784V11.04C66.0858 10.2933 65.9364 9.58933 65.6378 8.928C65.3604 8.26667 64.9658 7.69067 64.4538 7.2C63.9631 6.688 63.3871 6.29333 62.7258 6.016C62.0644 5.71733 61.3604 5.568 60.6138 5.568H45.2538C44.5071 5.568 43.7924 5.71733 43.1098 6.016C42.4484 6.29333 41.8724 6.688 41.3818 7.2C40.8911 7.69067 40.4964 8.26667 40.1978 8.928C39.9204 9.58933 39.7818 10.2933 39.7818 11.04V14.784ZM89.1593 24L72.8072 2.336H77.3833L90.1193 19.264C92.2526 16.4693 94.3966 13.6427 96.5513 10.784C98.7273 7.92533 100.871 5.10933 102.983 2.336H107.591L91.0793 24H89.1593ZM112.931 24V2.4H116.675V24H112.931ZM142.762 23.776C142.442 23.6053 142.165 23.4347 141.93 23.264C141.695 23.0933 141.418 22.816 141.098 22.432C140.031 21.1947 138.89 19.8613 137.674 18.432C136.458 17.0027 135.221 15.552 133.962 14.08C132.703 12.5867 131.455 11.1253 130.218 9.696C129.002 8.24533 127.871 6.90133 126.826 5.664C126.634 5.45067 126.357 5.344 125.994 5.344C125.717 5.344 125.461 5.41867 125.226 5.568C124.991 5.71733 124.863 5.94133 124.842 6.24V24H121.066V5.984L121.098 5.856C121.141 5.17333 121.311 4.56533 121.61 4.032C121.93 3.49867 122.314 3.05067 122.762 2.688C123.231 2.304 123.754 2.016 124.33 1.824C124.906 1.632 125.482 1.536 126.058 1.536C126.741 1.536 127.402 1.67467 128.042 1.952C128.703 2.22933 129.279 2.67733 129.77 3.296L129.738 3.264C132.127 6.08 134.495 8.88533 136.842 11.68C139.21 14.4533 141.589 17.248 143.978 20.064C144.191 20.2987 144.479 20.416 144.842 20.416C145.098 20.416 145.333 20.3307 145.546 20.16C145.759 19.9893 145.898 19.776 145.962 19.52V1.76H149.77V19.808C149.685 20.4693 149.482 21.0773 149.162 21.632C148.863 22.1653 148.49 22.624 148.042 23.008C147.594 23.392 147.082 23.6907 146.506 23.904C145.951 24.1173 145.386 24.224 144.81 24.224C144.085 24.224 143.391 24.064 142.73 23.744L142.762 23.776Z" fill="white"/>
<path d="M158.128 17.288L156.92 23H157.368L157.568 22.056H157.584C157.653 22.3973 157.813 22.6587 158.064 22.84C158.315 23.0213 158.616 23.112 158.968 23.112C159.32 23.112 159.632 23.0347 159.904 22.88C160.176 22.72 160.403 22.5147 160.584 22.264C160.771 22.0133 160.912 21.7307 161.008 21.416C161.104 21.1013 161.152 20.7867 161.152 20.472C161.152 20.2267 161.12 20 161.056 19.792C160.992 19.5787 160.893 19.3973 160.76 19.248C160.632 19.0933 160.469 18.9733 160.272 18.888C160.08 18.7973 159.851 18.752 159.584 18.752C159.264 18.752 158.981 18.8293 158.736 18.984C158.496 19.1387 158.304 19.344 158.16 19.6H158.144L158.632 17.288H158.128ZM158.904 22.696C158.712 22.696 158.544 22.664 158.4 22.6C158.261 22.5307 158.144 22.44 158.048 22.328C157.957 22.216 157.888 22.0853 157.84 21.936C157.797 21.7813 157.776 21.616 157.776 21.44C157.776 21.2053 157.811 20.9573 157.88 20.696C157.955 20.4293 158.061 20.184 158.2 19.96C158.344 19.736 158.52 19.5493 158.728 19.4C158.941 19.2507 159.187 19.176 159.464 19.176C159.88 19.176 160.181 19.2933 160.368 19.528C160.555 19.7627 160.648 20.072 160.648 20.456C160.648 20.7067 160.611 20.9653 160.536 21.232C160.461 21.4987 160.349 21.7413 160.2 21.96C160.056 22.1733 159.875 22.3493 159.656 22.488C159.443 22.6267 159.192 22.696 158.904 22.696ZM161.258 24.072L161.162 24.48C161.236 24.4853 161.311 24.4933 161.386 24.504C161.455 24.5147 161.524 24.52 161.594 24.52C162.047 24.52 162.38 24.336 162.594 23.968L165.53 18.872H164.986L163.082 22.376H163.066L162.474 18.872H161.946L162.706 23L162.33 23.648C162.266 23.7547 162.18 23.856 162.074 23.952C161.967 24.048 161.836 24.096 161.682 24.096C161.543 24.096 161.402 24.088 161.258 24.072ZM171.987 19.104C171.945 18.9387 171.886 18.7867 171.811 18.648C171.737 18.5093 171.641 18.3893 171.523 18.288C171.406 18.1867 171.267 18.1093 171.107 18.056C170.953 17.9973 170.771 17.968 170.563 17.968C170.259 17.968 169.995 18.0293 169.771 18.152C169.553 18.2747 169.374 18.44 169.235 18.648C169.097 18.8507 168.993 19.0827 168.923 19.344C168.859 19.6053 168.827 19.872 168.827 20.144C168.827 20.416 168.859 20.6827 168.923 20.944C168.993 21.2053 169.097 21.44 169.235 21.648C169.374 21.8507 169.553 22.0133 169.771 22.136C169.995 22.2587 170.259 22.32 170.563 22.32C170.787 22.32 170.985 22.2827 171.155 22.208C171.326 22.128 171.473 22.0213 171.595 21.888C171.718 21.7493 171.814 21.5893 171.883 21.408C171.953 21.2267 171.998 21.032 172.019 20.824H172.995C172.974 21.1653 172.899 21.4773 172.771 21.76C172.649 22.0427 172.481 22.288 172.267 22.496C172.054 22.6987 171.803 22.856 171.515 22.968C171.227 23.08 170.91 23.136 170.563 23.136C170.137 23.136 169.753 23.0587 169.411 22.904C169.075 22.744 168.79 22.528 168.555 22.256C168.321 21.984 168.139 21.6667 168.011 21.304C167.889 20.9413 167.827 20.5547 167.827 20.144C167.827 19.7387 167.889 19.3547 168.011 18.992C168.139 18.6293 168.321 18.312 168.555 18.04C168.79 17.768 169.075 17.552 169.411 17.392C169.753 17.232 170.137 17.152 170.563 17.152C170.883 17.152 171.185 17.1973 171.467 17.288C171.75 17.3733 171.998 17.5013 172.211 17.672C172.43 17.8373 172.606 18.04 172.739 18.28C172.873 18.52 172.955 18.7947 172.987 19.104H171.987ZM177.409 23H176.513V22.424H176.497C176.385 22.632 176.217 22.8 175.993 22.928C175.774 23.0507 175.55 23.112 175.321 23.112C174.777 23.112 174.382 22.9787 174.137 22.712C173.897 22.44 173.777 22.032 173.777 21.488V18.864H174.689V21.4C174.689 21.7627 174.758 22.0187 174.897 22.168C175.036 22.3173 175.23 22.392 175.481 22.392C175.673 22.392 175.833 22.3627 175.961 22.304C176.089 22.2453 176.193 22.168 176.273 22.072C176.353 21.9707 176.409 21.8507 176.441 21.712C176.478 21.5733 176.497 21.424 176.497 21.264V18.864H177.409V23ZM178.371 18.864H179.227V19.664H179.243C179.269 19.552 179.32 19.4427 179.395 19.336C179.475 19.2293 179.568 19.1333 179.675 19.048C179.787 18.9573 179.909 18.8853 180.043 18.832C180.176 18.7787 180.312 18.752 180.451 18.752C180.557 18.752 180.629 18.7547 180.667 18.76C180.709 18.7653 180.752 18.7707 180.795 18.776V19.656C180.731 19.6453 180.664 19.6373 180.595 19.632C180.531 19.6213 180.467 19.616 180.403 19.616C180.248 19.616 180.101 19.648 179.963 19.712C179.829 19.7707 179.712 19.8613 179.611 19.984C179.509 20.1013 179.429 20.248 179.371 20.424C179.312 20.6 179.283 20.8027 179.283 21.032V23H178.371V18.864ZM181.207 17.288H182.119V18.152H181.207V17.288ZM181.207 18.864H182.119V23H181.207V18.864ZM182.969 18.864H186.329V19.504L183.961 22.28H186.449V23H182.809V22.36L185.097 19.584H182.969V18.864ZM187.113 18.864H187.977V19.44H188.001C188.07 19.3387 188.145 19.2453 188.225 19.16C188.305 19.0747 188.393 19.0027 188.489 18.944C188.59 18.8853 188.705 18.84 188.833 18.808C188.961 18.7707 189.107 18.752 189.273 18.752C189.523 18.752 189.755 18.808 189.969 18.92C190.187 19.032 190.342 19.2053 190.433 19.44C190.587 19.2267 190.766 19.0587 190.969 18.936C191.171 18.8133 191.425 18.752 191.729 18.752C192.166 18.752 192.505 18.8587 192.745 19.072C192.99 19.2853 193.113 19.6427 193.113 20.144V23H192.201V20.584C192.201 20.4187 192.195 20.2693 192.185 20.136C192.174 19.9973 192.142 19.88 192.089 19.784C192.041 19.6827 191.966 19.6053 191.865 19.552C191.763 19.4987 191.625 19.472 191.449 19.472C191.139 19.472 190.915 19.568 190.777 19.76C190.638 19.952 190.569 20.224 190.569 20.576V23H189.657V20.344C189.657 20.056 189.603 19.84 189.497 19.696C189.395 19.5467 189.206 19.472 188.929 19.472C188.811 19.472 188.697 19.496 188.585 19.544C188.478 19.592 188.382 19.6613 188.297 19.752C188.217 19.8427 188.15 19.9547 188.097 20.088C188.049 20.2213 188.025 20.3733 188.025 20.544V23H187.113V18.864ZM195.97 23.112C195.639 23.112 195.343 23.0587 195.082 22.952C194.826 22.84 194.607 22.688 194.426 22.496C194.25 22.304 194.114 22.0747 194.018 21.808C193.927 21.5413 193.882 21.248 193.882 20.928C193.882 20.6133 193.927 20.3227 194.018 20.056C194.114 19.7893 194.25 19.56 194.426 19.368C194.607 19.176 194.826 19.0267 195.082 18.92C195.343 18.808 195.639 18.752 195.97 18.752C196.3 18.752 196.594 18.808 196.85 18.92C197.111 19.0267 197.33 19.176 197.506 19.368C197.687 19.56 197.823 19.7893 197.914 20.056C198.01 20.3227 198.058 20.6133 198.058 20.928C198.058 21.248 198.01 21.5413 197.914 21.808C197.823 22.0747 197.687 22.304 197.506 22.496C197.33 22.688 197.111 22.84 196.85 22.952C196.594 23.0587 196.3 23.112 195.97 23.112ZM195.97 22.392C196.172 22.392 196.348 22.3493 196.498 22.264C196.647 22.1787 196.77 22.0667 196.866 21.928C196.962 21.7893 197.031 21.6347 197.074 21.464C197.122 21.288 197.146 21.1093 197.146 20.928C197.146 20.752 197.122 20.576 197.074 20.4C197.031 20.224 196.962 20.0693 196.866 19.936C196.77 19.7973 196.647 19.6853 196.498 19.6C196.348 19.5147 196.172 19.472 195.97 19.472C195.767 19.472 195.591 19.5147 195.442 19.6C195.292 19.6853 195.17 19.7973 195.074 19.936C194.978 20.0693 194.906 20.224 194.858 20.4C194.815 20.576 194.794 20.752 194.794 20.928C194.794 21.1093 194.815 21.288 194.858 21.464C194.906 21.6347 194.978 21.7893 195.074 21.928C195.17 22.0667 195.292 22.1787 195.442 22.264C195.591 22.3493 195.767 22.392 195.97 22.392Z" fill="white"/>
</svg>
