<svg width="24" height="13" viewBox="0 0 24 13" fill="none" xmlns="http://www.w3.org/2000/svg">
<path d="M0 2.12478V7.70098H1.53157V4.46528C1.53157 4.19204 1.57112 3.97273 1.65021 3.80735C1.72931 3.63478 1.82278 3.50535 1.93064 3.41906C2.04569 3.32559 2.16073 3.26447 2.27578 3.23571C2.39802 3.19975 2.49509 3.18178 2.56699 3.18178C2.81147 3.18178 2.99483 3.22492 3.11706 3.31121C3.24649 3.3903 3.33637 3.49816 3.38671 3.63478C3.44423 3.7714 3.47659 3.9224 3.48378 4.08778C3.49097 4.24597 3.49456 4.40775 3.49456 4.57313V7.70098H5.02613V4.5947C5.02613 4.42213 5.03692 4.25316 5.05849 4.08778C5.08725 3.91521 5.13758 3.76421 5.20949 3.63478C5.28858 3.49816 5.39285 3.3903 5.52227 3.31121C5.65889 3.22492 5.83506 3.18178 6.05077 3.18178C6.26649 3.18178 6.43546 3.21773 6.5577 3.28964C6.68713 3.36154 6.7842 3.45861 6.84891 3.58085C6.91363 3.70309 6.95318 3.8469 6.96756 4.01228C6.98194 4.17766 6.98913 4.35382 6.98913 4.54078V7.70098H8.5207V3.96913C8.5207 3.60961 8.47036 3.30402 8.3697 3.05235C8.26903 2.79349 8.12882 2.58497 7.94905 2.42678C7.76929 2.26859 7.55358 2.15354 7.30191 2.08164C7.05025 2.00973 6.77701 1.97378 6.4822 1.97378C6.09392 1.97378 5.75596 2.06726 5.46835 2.25421C5.18792 2.44116 4.96501 2.65688 4.79963 2.90135C4.64863 2.55621 4.42573 2.31533 4.13092 2.17871C3.8433 2.04209 3.52333 1.97378 3.17099 1.97378C2.80428 1.97378 2.47711 2.05288 2.1895 2.21107C1.90907 2.36926 1.66819 2.59216 1.46685 2.87978H1.44528V2.12478H0Z" fill="#D5DAE1"/>
<path d="M10.9933 5.28499C11.0149 5.78113 11.1407 6.14065 11.3708 6.36356C11.6009 6.58646 11.9317 6.69791 12.3631 6.69791C12.6723 6.69791 12.9383 6.62241 13.1612 6.47141C13.3841 6.31322 13.5208 6.14784 13.5711 5.97527H14.9193C14.7036 6.64399 14.3728 7.12575 13.927 7.42056C13.4812 7.70817 12.9419 7.85198 12.3092 7.85198C11.8706 7.85198 11.4751 7.78008 11.1227 7.63627C10.7704 7.49246 10.472 7.29113 10.2275 7.03227C9.98306 6.77341 9.79251 6.46422 9.65589 6.1047C9.52646 5.74518 9.46175 5.3497 9.46175 4.91828C9.46175 4.50123 9.53006 4.11294 9.66668 3.75342C9.80329 3.3939 9.99744 3.08471 10.2491 2.82585C10.5008 2.5598 10.7992 2.35128 11.1443 2.20028C11.4966 2.04928 11.8849 1.97378 12.3092 1.97378C12.7837 1.97378 13.1972 2.06726 13.5495 2.25421C13.9019 2.43397 14.1895 2.67845 14.4124 2.98764C14.6425 3.29683 14.8079 3.64916 14.9085 4.04463C15.0092 4.44011 15.0451 4.85356 15.0164 5.28499H10.9933ZM13.4848 4.31428C13.4129 3.92599 13.2835 3.63118 13.0965 3.42985C12.9168 3.22852 12.6399 3.12785 12.266 3.12785C12.0144 3.12785 11.8094 3.17099 11.6512 3.25728C11.4931 3.33637 11.3636 3.43704 11.263 3.55928C11.1695 3.68152 11.1012 3.81094 11.058 3.94756C11.0221 4.08418 11.0005 4.20642 10.9933 4.31428H13.4848ZM10.4109 0.215714H14.2182V1.02464H10.4109V0.215714Z" fill="#D5DAE1"/>
<path d="M15.9679 0V9.54043H17.4994V0H15.9679Z" fill="#D5DAE1"/>
<path d="M22.4588 4.31428H19.9673C19.9745 4.20642 19.9961 4.08418 20.0321 3.94756C20.0752 3.81094 20.1435 3.68152 20.237 3.55928C20.3377 3.43704 20.4671 3.33637 20.6253 3.25728C20.7907 3.17099 20.9956 3.12785 21.2401 3.12785C21.614 3.12785 21.8908 3.22852 22.0706 3.42985C22.2575 3.63118 22.3869 3.92599 22.4588 4.31428ZM19.9673 5.28499H23.9904C24.0192 4.85356 23.9832 4.44011 23.8826 4.04463C23.7819 3.64916 23.6165 3.29683 23.3864 2.98764C23.1635 2.67845 22.8759 2.43397 22.5236 2.25421C22.1712 2.06726 21.7578 1.97378 21.2832 1.97378C20.859 1.97378 20.4707 2.04928 20.1183 2.20028C19.7732 2.35128 19.4748 2.5598 19.2231 2.82585C18.9715 3.08471 18.7773 3.3939 18.6407 3.75342C18.5041 4.11294 18.4358 4.50123 18.4358 4.91828C18.4358 5.3497 18.5005 5.74518 18.6299 6.1047C18.7665 6.46422 18.9571 6.77341 19.2016 7.03227C19.446 7.29113 19.7444 7.49246 20.0968 7.63627C20.4491 7.77289 20.8446 7.8412 21.2832 7.8412C21.916 7.8412 22.4552 7.69739 22.9011 7.40977C23.3469 7.12215 23.6776 6.64399 23.8933 5.97527H22.5451C22.4948 6.14784 22.3582 6.31322 22.1353 6.47141C21.9124 6.62241 21.6463 6.69791 21.3371 6.69791C20.9057 6.69791 20.5749 6.58646 20.3448 6.36356C20.1147 6.14065 19.9889 5.78113 19.9673 5.28499Z" fill="#D5DAE1"/>
<path fill-rule="evenodd" clip-rule="evenodd" d="M11.8301 9.03662C12.4554 11.0499 14.3329 12.5118 16.5518 12.5118H16.9113C19.1303 12.5118 21.0078 11.0499 21.6331 9.03662H20.2924C19.725 10.3412 18.4247 11.2535 16.9113 11.2535H16.5518C15.0385 11.2535 13.7381 10.3412 13.1708 9.03662H11.8301Z" fill="#D5DAE1"/>
</svg>
