<svg width="24" height="23" viewBox="0 0 24 23" fill="none" xmlns="http://www.w3.org/2000/svg">
<path fill-rule="evenodd" clip-rule="evenodd" d="M13.7511 2.74264C13.7511 1.78176 12.9657 1 12.0003 1C11.0348 1 10.2495 1.78176 10.2495 2.74264C10.2495 3.70326 11.0348 4.48502 12.0003 4.48502C12.9657 4.48502 13.7511 3.70326 13.7511 2.74264ZM10.7994 2.74264C10.7994 2.08496 11.3382 1.55 12.0003 1.55C12.6624 1.55 13.2011 2.08496 13.2011 2.74264C13.2011 3.40006 12.6624 3.93502 12.0003 3.93502C11.3382 3.93502 10.7994 3.40006 10.7994 2.74264ZM11.9822 16.6594C14.561 16.6594 16.659 14.5614 16.659 11.9825C16.659 9.40358 14.561 7.30564 11.9822 7.30564C9.40325 7.30564 7.30517 9.40358 7.30517 11.9825C7.30517 14.5614 9.40325 16.6594 11.9822 16.6594ZM9.47758 15.2549C9.5053 14.1714 10.2106 13.2385 11.2528 12.9222C11.3589 12.8899 11.4351 12.7973 11.4464 12.6869C11.4577 12.5768 11.4017 12.4705 11.3045 12.4176C10.8094 12.1479 10.5019 11.6307 10.5019 11.0678C10.5019 10.2213 11.1906 9.53248 12.0372 9.53248C12.8838 9.53248 13.5727 10.2213 13.5727 11.0678C13.5727 11.6476 13.2505 12.1716 12.7318 12.4355C12.6329 12.486 12.5739 12.5908 12.5824 12.7014C12.5907 12.8121 12.6648 12.9069 12.7701 12.9418C13.7774 13.2753 14.4592 14.2 14.4866 15.2549C13.7912 15.7884 12.9244 16.1094 11.9822 16.1094C11.0399 16.1094 10.1731 15.7884 9.47758 15.2549ZM11.9822 7.85564C14.2578 7.85564 16.109 9.70704 16.109 11.9825C16.109 13.0719 15.6816 14.0612 14.9896 14.7995C14.8295 13.872 14.2544 13.0682 13.4232 12.6254C13.8637 12.2355 14.1227 11.6739 14.1227 11.0678C14.1227 9.91786 13.1872 8.98249 12.0372 8.98249C10.8874 8.98249 9.9519 9.91786 9.9519 11.0678C9.9519 11.6514 10.1952 12.1987 10.6093 12.5878C9.73909 13.0214 9.13721 13.8401 8.97378 14.7985C8.28225 14.0602 7.85517 13.0714 7.85517 11.9825C7.85517 9.70704 9.70658 7.85564 11.9822 7.85564ZM5.45706 3.70725H5.46216C5.92716 3.70725 6.36356 3.88772 6.69173 4.21589C7.02111 4.54514 7.20171 4.98369 7.20037 5.45043C7.19916 5.91691 7.01641 6.35573 6.68582 6.68605C6.35537 7.01664 5.91655 7.19926 5.45034 7.2006H5.44524C4.98037 7.2006 4.54397 7.02013 4.2158 6.69196C3.88642 6.36271 3.70568 5.92416 3.70703 5.45742C3.70837 4.99094 3.89112 4.55239 4.22158 4.2218C4.55203 3.89121 4.99085 3.7086 5.45706 3.70725ZM4.60467 6.30309C5.06967 6.76769 5.82873 6.76554 6.29696 6.29718C6.52402 6.07026 6.64957 5.76894 6.65037 5.44909C6.65131 5.12951 6.52791 4.82981 6.30287 4.60476C6.07151 4.37327 5.7671 4.25779 5.46216 4.25779C5.15426 4.25779 4.84569 4.37541 4.61044 4.61067C4.38351 4.8376 4.25797 5.13891 4.25703 5.45876C4.25609 5.77834 4.37962 6.07804 4.60467 6.30309ZM1 11.9999C1 12.9654 1.78163 13.7506 2.74251 13.7506C3.70339 13.7506 4.48515 12.9654 4.48515 11.9999C4.48515 11.0345 3.70339 10.2492 2.74251 10.2492C1.78163 10.2492 1 11.0345 1 11.9999ZM3.93516 11.9999C3.93516 12.6619 3.4002 13.2006 2.74251 13.2006C2.08496 13.2006 1.55 12.6619 1.55 11.9999C1.55 11.3379 2.08496 10.7992 2.74251 10.7992C3.4002 10.7992 3.93516 11.3379 3.93516 11.9999ZM5.45706 20.2925C4.99085 20.2911 4.55203 20.1085 4.22158 19.7779C3.89112 19.4473 3.70837 19.0088 3.70703 18.5423C3.70568 18.0756 3.88642 17.637 4.2158 17.3078C4.54384 16.9796 4.98037 16.7991 5.44524 16.7991H5.45034C5.91655 16.8005 6.35537 16.9831 6.68582 17.3137C7.01641 17.644 7.19916 18.0828 7.20037 18.5493C7.20171 19.016 7.02111 19.4546 6.69173 19.7838C6.36369 20.112 5.92716 20.2925 5.46216 20.2925H5.45706ZM5.44537 17.3497C5.1403 17.3497 4.83616 17.4651 4.60467 17.6966C4.37962 17.9217 4.25609 18.2214 4.25703 18.541C4.25797 18.8608 4.38351 19.1621 4.61044 19.3891C5.07866 19.8574 5.8376 19.8601 6.30287 19.395C6.52791 19.1699 6.65131 18.8702 6.65037 18.5506C6.64957 18.2308 6.52402 17.9295 6.29696 17.7025C6.06184 17.4673 5.75314 17.3497 5.44537 17.3497ZM10.2495 21.2574C10.2495 22.2183 11.0348 23 12.0003 23C12.9657 23 13.7511 22.2183 13.7511 21.2574C13.7511 20.2968 12.9657 19.515 12.0003 19.515C11.0348 19.515 10.2495 20.2968 10.2495 21.2574ZM13.2011 21.2574C13.2011 21.9151 12.6624 22.45 12.0003 22.45C11.3382 22.45 10.7994 21.9151 10.7994 21.2574C10.7994 20.6 11.3382 20.065 12.0003 20.065C12.6624 20.065 13.2011 20.6 13.2011 21.2574ZM18.5376 20.2925C18.0726 20.2925 17.6362 20.112 17.308 19.7838C16.9786 19.4546 16.798 19.016 16.7994 18.5493C16.8006 18.0828 16.9833 17.644 17.3139 17.3137C17.6444 16.9831 18.0832 16.8005 18.5494 16.7991H18.5545C19.0194 16.7991 19.4558 16.9796 19.7839 17.3078C20.1133 17.637 20.2941 18.0756 20.2927 18.5423C20.2914 19.0088 20.1086 19.4473 19.7782 19.7779C19.4477 20.1085 19.0089 20.2911 18.5427 20.2925H18.5376ZM18.5544 17.3497C18.2465 17.3497 17.938 17.4673 17.7028 17.7025C17.4757 17.9295 17.3502 18.2308 17.3494 18.5506C17.3484 18.8702 17.4718 19.1699 17.6969 19.395C18.1619 19.8601 18.9211 19.8574 19.3893 19.3891C19.6162 19.1621 19.7418 18.8608 19.7427 18.541C19.7437 18.2214 19.6201 17.9217 19.3951 17.6966C19.1637 17.4654 18.8593 17.3497 18.5544 17.3497ZM21.2574 10.2492C20.2965 10.2492 19.5148 11.0345 19.5148 11.9999C19.5148 12.9654 20.2965 13.7506 21.2574 13.7506C22.2183 13.7506 22.9999 12.9654 22.9999 11.9999C22.9999 11.0345 22.2183 10.2492 21.2574 10.2492ZM21.2574 13.2006C20.5997 13.2006 20.0648 12.6619 20.0648 11.9999C20.0648 11.3379 20.5997 10.7992 21.2574 10.7992C21.915 10.7992 22.4499 11.3379 22.4499 11.9999C22.4499 12.6619 21.915 13.2006 21.2574 13.2006ZM18.5376 3.70725H18.5427C19.0089 3.7086 19.4477 3.89121 19.7782 4.2218C20.1086 4.55239 20.2914 4.99094 20.2927 5.45742C20.2941 5.92416 20.1133 6.36271 19.7839 6.69196C19.4559 7.02013 19.0194 7.2006 18.5545 7.2006H18.5494C18.0832 7.19926 17.6444 7.01664 17.3139 6.68605C16.9833 6.35573 16.8006 5.91691 16.7994 5.45043C16.798 4.98369 16.9786 4.54514 17.308 4.21589C17.636 3.88772 18.0726 3.70725 18.5376 3.70725ZM17.7028 6.29718C18.171 6.76581 18.9301 6.76796 19.3951 6.30309C19.6201 6.07804 19.7437 5.77834 19.7427 5.45876C19.7418 5.13891 19.6162 4.8376 19.3893 4.61067C19.154 4.37541 18.8455 4.25779 18.5376 4.25779C18.2326 4.25779 17.9284 4.37327 17.6969 4.60476C17.4718 4.82981 17.3484 5.12951 17.3494 5.44909C17.3502 5.76894 17.4757 6.07026 17.7028 6.29718ZM16.3702 4.14972C16.4126 4.17336 16.4585 4.18463 16.5039 4.18463C16.6005 4.18463 16.6941 4.13388 16.7444 4.04364C16.8184 3.91098 16.7709 3.7434 16.6382 3.66955C16.0319 3.33117 15.3879 3.05966 14.7242 2.86228C14.5789 2.81877 14.4256 2.90149 14.3822 3.04731C14.3388 3.19287 14.4218 3.34594 14.5674 3.38918C15.1926 3.57529 15.7991 3.83122 16.3702 4.14972ZM7.75135 4.08642C7.70972 4.10897 7.66487 4.11972 7.62069 4.11972C7.52294 4.11972 7.42841 4.06762 7.37859 3.97577C7.30622 3.84203 7.3559 3.67526 7.48951 3.60275C8.09872 3.27297 8.74607 3.00978 9.41369 2.82045C9.56059 2.77802 9.71206 2.86369 9.75328 3.01005C9.79477 3.15615 9.70991 3.30815 9.56381 3.3495C8.935 3.52782 8.32511 3.77597 7.75135 4.08642ZM2.89652 9.2421C2.85315 9.38766 2.93614 9.54074 3.08169 9.58397C3.10788 9.59176 3.13419 9.59552 3.16024 9.59552C3.27868 9.59552 3.38811 9.51845 3.42369 9.39894C3.60994 8.77348 3.86587 8.16682 4.18424 7.59614C4.25836 7.46347 4.21082 7.2959 4.07816 7.22204C3.94536 7.14792 3.77778 7.19519 3.70406 7.32812C3.36596 7.93398 3.09431 8.57797 2.89652 9.2421ZM3.0439 14.2127C3.19053 14.1703 3.34213 14.2562 3.38349 14.402C3.56194 15.031 3.80995 15.6409 4.12053 16.215C4.19278 16.3485 4.14309 16.5156 4.00962 16.5878C3.968 16.6101 3.92315 16.6208 3.87897 16.6208C3.78122 16.6208 3.68655 16.5687 3.63687 16.4766C3.30709 15.8673 3.0439 15.2198 2.85444 14.5524C2.81295 14.4063 2.89781 14.2541 3.0439 14.2127ZM7.3622 20.2617C7.96846 20.6 8.61245 20.8715 9.27618 21.0689C9.30237 21.0767 9.32869 21.0805 9.35474 21.0805C9.47317 21.0805 9.5826 21.0034 9.61819 20.8839C9.66156 20.7383 9.57858 20.5853 9.43302 20.542C8.80783 20.3559 8.2013 20.1 7.63022 19.7815C7.49769 19.7076 7.32998 19.7552 7.25599 19.8876C7.182 20.0202 7.22954 20.1878 7.3622 20.2617ZM14.4371 20.5817C15.0659 20.4034 15.6758 20.1553 16.2496 19.8448C16.3833 19.7721 16.55 19.822 16.6223 19.9555C16.6947 20.0892 16.645 20.256 16.5114 20.3285C15.9022 20.6583 15.2549 20.9215 14.5872 21.1108C14.5621 21.118 14.5369 21.1213 14.512 21.1213C14.3921 21.1213 14.2819 21.0423 14.2476 20.9212C14.2062 20.7751 14.291 20.6231 14.4371 20.5817ZM19.9221 16.709C19.9645 16.7326 20.0104 16.7439 20.0558 16.7439C20.1522 16.7439 20.2459 16.6931 20.2962 16.6029C20.6343 15.997 20.9059 15.353 21.1037 14.6889C21.1471 14.5433 21.0641 14.3903 20.9185 14.347C20.7734 14.3035 20.6199 14.3862 20.5765 14.5321C20.3903 15.1575 20.1344 15.7642 19.816 16.3349C19.7419 16.4675 19.7894 16.6351 19.9221 16.709ZM20.6157 9.52888C20.4372 8.89992 20.1892 8.29004 19.8786 7.71587C19.8064 7.5824 19.8561 7.41536 19.9895 7.34312C20.1233 7.27115 20.29 7.32056 20.3623 7.4543C20.6921 8.06365 20.9553 8.71113 21.1447 9.37849C21.1862 9.52458 21.1013 9.67685 20.9553 9.71821C20.9301 9.72546 20.9049 9.72868 20.8801 9.72868C20.7602 9.72868 20.65 9.64972 20.6157 9.52888Z" fill="black"/>
<path d="M11.2528 12.9222L11.398 13.4006L11.3981 13.4006L11.2528 12.9222ZM9.47758 15.2549L8.97775 15.2421L8.97124 15.4966L9.17324 15.6516L9.47758 15.2549ZM11.4464 12.6869L10.949 12.636L10.949 12.6361L11.4464 12.6869ZM11.3045 12.4176L11.0653 12.8567L11.0655 12.8567L11.3045 12.4176ZM12.7318 12.4355L12.505 11.9899L12.5046 11.9902L12.7318 12.4355ZM12.5824 12.7014L13.081 12.6639L13.0809 12.6633L12.5824 12.7014ZM12.7701 12.9418L12.6127 13.4164L12.6129 13.4164L12.7701 12.9418ZM14.4866 15.2549L14.791 15.6516L14.9931 15.4966L14.9865 15.2419L14.4866 15.2549ZM14.9896 14.7995L14.4969 14.8846L14.6676 15.8741L15.3544 15.1415L14.9896 14.7995ZM13.4232 12.6254L13.0918 12.2511L12.5528 12.7282L13.1881 13.0667L13.4232 12.6254ZM10.6093 12.5878L10.8323 13.0353L11.4749 12.7151L10.9517 12.2234L10.6093 12.5878ZM8.97378 14.7985L8.60886 15.1403L9.29737 15.8754L9.46666 14.8826L8.97378 14.7985ZM5.45706 3.70725V3.20725L5.45562 3.20726L5.45706 3.70725ZM6.69173 4.21589L6.33818 4.56945L6.33825 4.56952L6.69173 4.21589ZM7.20037 5.45043L6.70037 5.449V5.44914L7.20037 5.45043ZM6.68582 6.68605L6.33241 6.33235L6.3322 6.33257L6.68582 6.68605ZM5.45034 7.2006V7.7006L5.45178 7.7006L5.45034 7.2006ZM4.2158 6.69196L4.56936 6.3384L4.56928 6.33833L4.2158 6.69196ZM3.70703 5.45742L3.20703 5.45598V5.45598L3.70703 5.45742ZM4.22158 4.2218L4.5752 4.57528L4.22158 4.2218ZM6.29696 6.29718L5.94351 5.94353L5.94335 5.94368L6.29696 6.29718ZM4.60467 6.30309L4.25111 6.65665L4.25127 6.6568L4.60467 6.30309ZM6.65037 5.44909L6.15038 5.44762L6.15038 5.44783L6.65037 5.44909ZM6.30287 4.60476L5.94921 4.95821L5.94931 4.95831L6.30287 4.60476ZM4.25703 5.45876L4.75702 5.46023V5.46023L4.25703 5.45876ZM4.22158 19.7779L4.5752 19.4244L4.22158 19.7779ZM5.45706 20.2925L5.45562 20.7925H5.45706V20.2925ZM3.70703 18.5423L3.20703 18.5437V18.5437L3.70703 18.5423ZM4.2158 17.3078L4.56928 17.6614L4.56943 17.6612L4.2158 17.3078ZM5.45034 16.7991L5.45178 16.2991H5.45034V16.7991ZM6.68582 17.3137L6.3322 17.6672L6.33241 17.6674L6.68582 17.3137ZM7.20037 18.5493L6.70037 18.5506L6.70037 18.5507L7.20037 18.5493ZM6.69173 19.7838L6.33825 19.4302L6.33811 19.4303L6.69173 19.7838ZM4.25703 18.541L4.75702 18.5395V18.5395L4.25703 18.541ZM4.61044 19.3891L4.96405 19.0356L4.96399 19.0355L4.61044 19.3891ZM6.30287 19.395L6.65637 19.7486L6.65642 19.7485L6.30287 19.395ZM6.65037 18.5506L6.15038 18.5519L6.15038 18.5521L6.65037 18.5506ZM6.29696 17.7025L5.9433 18.056L5.94351 18.0562L6.29696 17.7025ZM17.308 19.7838L17.6616 19.4303L17.6615 19.4302L17.308 19.7838ZM16.7994 18.5493L17.2994 18.5507L17.2994 18.5506L16.7994 18.5493ZM17.3139 17.3137L17.6673 17.6674L17.6675 17.6672L17.3139 17.3137ZM18.5494 16.7991V16.2991L18.548 16.2991L18.5494 16.7991ZM19.7839 17.3078L19.4304 17.6613L19.4305 17.6614L19.7839 17.3078ZM20.2927 18.5423L20.7927 18.5437V18.5437L20.2927 18.5423ZM19.7782 19.7779L20.1318 20.1314H20.1318L19.7782 19.7779ZM18.5427 20.2925V20.7925L18.5441 20.7925L18.5427 20.2925ZM17.7028 17.7025L18.0562 18.0562L18.0563 18.0561L17.7028 17.7025ZM17.3494 18.5506L17.8494 18.5521V18.5519L17.3494 18.5506ZM17.6969 19.395L18.0505 19.0415L18.0504 19.0414L17.6969 19.395ZM19.3893 19.3891L19.0357 19.0355L19.0357 19.0356L19.3893 19.3891ZM19.7427 18.541L19.2427 18.5395L19.7427 18.541ZM19.3951 17.6966L19.7486 17.3431L19.7485 17.343L19.3951 17.6966ZM18.5427 3.70725L18.5441 3.20725H18.5427V3.70725ZM19.7782 4.2218L20.1318 3.86832L20.1318 3.86832L19.7782 4.2218ZM20.2927 5.45742L20.7927 5.45598V5.45598L20.2927 5.45742ZM19.7839 6.69196L19.4305 6.33833L19.4303 6.33848L19.7839 6.69196ZM18.5494 7.2006L18.548 7.7006H18.5494V7.2006ZM17.3139 6.68605L17.6675 6.33257L17.6673 6.33235L17.3139 6.68605ZM16.7994 5.45043L17.2994 5.44914L17.2994 5.449L16.7994 5.45043ZM17.308 4.21589L17.6615 4.56952L17.6616 4.56937L17.308 4.21589ZM19.3951 6.30309L19.7486 6.6567L19.7486 6.65665L19.3951 6.30309ZM17.7028 6.29718L18.0565 5.94378L18.0562 5.94353L17.7028 6.29718ZM19.7427 5.45876L19.2427 5.46023V5.46023L19.7427 5.45876ZM19.3893 4.61067L19.0357 4.96422L19.0357 4.96422L19.3893 4.61067ZM17.6969 4.60476L18.0504 4.95831V4.95831L17.6969 4.60476ZM17.3494 5.44909L17.8494 5.44783V5.44762L17.3494 5.44909ZM16.3702 4.14972L16.1266 4.5864L16.1269 4.58654L16.3702 4.14972ZM16.7444 4.04364L17.181 4.28729L17.1811 4.28718L16.7444 4.04364ZM16.6382 3.66955L16.3945 4.10615L16.395 4.10642L16.6382 3.66955ZM14.7242 2.86228L14.5808 3.34126L14.5817 3.34153L14.7242 2.86228ZM14.3822 3.04731L14.8614 3.19009L14.8615 3.18985L14.3822 3.04731ZM14.5674 3.38918L14.71 2.90996L14.7098 2.90988L14.5674 3.38918ZM7.75135 4.08642L7.51341 3.64666L7.51311 3.64682L7.75135 4.08642ZM7.37859 3.97577L6.93885 4.21374L6.93908 4.21416L7.37859 3.97577ZM7.48951 3.60275L7.25148 3.16304L7.25101 3.1633L7.48951 3.60275ZM9.41369 2.82045L9.55011 3.30149L9.55244 3.30082L9.41369 2.82045ZM9.75328 3.01005L9.272 3.14561L9.2723 3.14665L9.75328 3.01005ZM9.56381 3.3495L9.42762 2.86841L9.4274 2.86847L9.56381 3.3495ZM3.08169 9.58397L3.22423 9.10472L3.22407 9.10467L3.08169 9.58397ZM2.89652 9.2421L3.3757 9.38488L3.37572 9.38482L2.89652 9.2421ZM3.42369 9.39894L2.94449 9.25625L2.94449 9.25625L3.42369 9.39894ZM4.18424 7.59614L3.74774 7.35227L3.74759 7.35254L4.18424 7.59614ZM4.07816 7.22204L3.83448 7.65864L3.83496 7.65891L4.07816 7.22204ZM3.70406 7.32812L4.14068 7.57178L4.14133 7.57061L3.70406 7.32812ZM3.38349 14.402L2.90246 14.5385L2.90248 14.5385L3.38349 14.402ZM3.0439 14.2127L3.1801 14.6938L3.18289 14.693L3.0439 14.2127ZM4.12053 16.215L3.68075 16.4529L3.68081 16.453L4.12053 16.215ZM4.00962 16.5878L4.24565 17.0286L4.24762 17.0275L4.00962 16.5878ZM3.63687 16.4766L4.07694 16.2393L4.0766 16.2386L3.63687 16.4766ZM2.85444 14.5524L3.33543 14.4159L3.33542 14.4158L2.85444 14.5524ZM9.27618 21.0689L9.41876 20.5897L9.41871 20.5897L9.27618 21.0689ZM7.3622 20.2617L7.60589 19.8251L7.6054 19.8248L7.3622 20.2617ZM9.61819 20.8839L9.13901 20.7411L9.13898 20.7412L9.61819 20.8839ZM9.43302 20.542L9.29037 21.0212L9.29064 21.0213L9.43302 20.542ZM7.63022 19.7815L7.87376 19.3448L7.87361 19.3447L7.63022 19.7815ZM7.25599 19.8876L6.81952 19.6436L6.81931 19.644L7.25599 19.8876ZM16.2496 19.8448L16.4875 20.2846L16.4886 20.284L16.2496 19.8448ZM14.4371 20.5817L14.5733 21.0628L14.5735 21.0628L14.4371 20.5817ZM16.6223 19.9555L17.0621 19.7175L17.0619 19.7171L16.6223 19.9555ZM16.5114 20.3285L16.7494 20.7682L16.7499 20.768L16.5114 20.3285ZM14.5872 21.1108L14.4508 20.6298L14.4485 20.6304L14.5872 21.1108ZM14.2476 20.9212L14.7288 20.7852L14.7286 20.7846L14.2476 20.9212ZM19.9221 16.709L20.1653 16.2721L20.1653 16.2721L19.9221 16.709ZM20.2962 16.6029L19.8595 16.3592L19.8593 16.3597L20.2962 16.6029ZM21.1037 14.6889L20.6245 14.5461L20.6245 14.5462L21.1037 14.6889ZM20.9185 14.347L20.775 14.826L20.7762 14.8263L20.9185 14.347ZM20.5765 14.5321L21.0557 14.6748L21.0558 14.6746L20.5765 14.5321ZM19.816 16.3349L20.2525 16.5787L20.2526 16.5785L19.816 16.3349ZM19.8786 7.71587L20.3184 7.47798L20.3183 7.47787L19.8786 7.71587ZM20.6157 9.52888L20.1347 9.66535L20.1347 9.66567L20.6157 9.52888ZM19.9895 7.34312L19.7526 6.90282L19.7515 6.9034L19.9895 7.34312ZM20.3623 7.4543L19.9224 7.69193L19.9226 7.69228L20.3623 7.4543ZM21.1447 9.37849L20.6637 9.51504L20.6637 9.51508L21.1447 9.37849ZM20.9553 9.71821L20.8191 9.2371L20.8165 9.23784L20.9553 9.71821ZM12.0003 1.5C12.6918 1.5 13.2511 2.0601 13.2511 2.74264H14.2511C14.2511 1.50342 13.2397 0.5 12.0003 0.5V1.5ZM10.7495 2.74264C10.7495 2.0601 11.3088 1.5 12.0003 1.5V0.5C10.7609 0.5 9.74945 1.50342 9.74945 2.74264H10.7495ZM12.0003 3.98502C11.3087 3.98502 10.7495 3.42487 10.7495 2.74264H9.74945C9.74945 3.98165 10.7609 4.98502 12.0003 4.98502V3.98502ZM13.2511 2.74264C13.2511 3.42487 12.6918 3.98502 12.0003 3.98502V4.98502C13.2396 4.98502 14.2511 3.98165 14.2511 2.74264H13.2511ZM12.0003 1.05C11.0653 1.05 10.2994 1.80557 10.2994 2.74264H11.2994C11.2994 2.36434 11.6111 2.05 12.0003 2.05V1.05ZM13.7011 2.74264C13.7011 1.80557 12.9353 1.05 12.0003 1.05V2.05C12.3895 2.05 12.7011 2.36434 12.7011 2.74264H13.7011ZM12.0003 4.43502C12.9352 4.43502 13.7011 3.67952 13.7011 2.74264H12.7011C12.7011 3.1206 12.3896 3.43502 12.0003 3.43502V4.43502ZM10.2994 2.74264C10.2994 3.67952 11.0654 4.43502 12.0003 4.43502V3.43502C11.611 3.43502 11.2994 3.1206 11.2994 2.74264H10.2994ZM16.159 11.9825C16.159 14.2853 14.2848 16.1594 11.9822 16.1594V17.1594C14.8371 17.1594 17.159 14.8376 17.159 11.9825H16.159ZM11.9822 7.80564C14.2848 7.80564 16.159 9.67973 16.159 11.9825H17.159C17.159 9.12743 14.8371 6.80564 11.9822 6.80564V7.80564ZM7.80517 11.9825C7.80517 9.67974 9.67937 7.80564 11.9822 7.80564V6.80564C9.12712 6.80564 6.80517 9.12742 6.80517 11.9825H7.80517ZM11.9822 16.1594C9.67937 16.1594 7.80517 14.2853 7.80517 11.9825H6.80517C6.80517 14.8376 9.12712 17.1594 11.9822 17.1594V16.1594ZM11.1075 12.4437C9.85823 12.823 9.01094 13.9442 8.97775 15.2421L9.97742 15.2676C9.99965 14.3986 10.563 13.6541 11.398 13.4006L11.1075 12.4437ZM10.949 12.6361C10.9582 12.5462 11.0206 12.4701 11.1074 12.4438L11.3981 13.4006C11.6971 13.3097 11.9121 13.0484 11.9438 12.7377L10.949 12.6361ZM11.0655 12.8567C10.9854 12.8132 10.9398 12.7261 10.949 12.636L11.9438 12.7379C11.9756 12.4275 11.818 12.1278 11.5435 11.9784L11.0655 12.8567ZM10.0019 11.0678C10.0019 11.8141 10.4097 12.4996 11.0653 12.8567L11.5436 11.9785C11.2091 11.7963 11.0019 11.4473 11.0019 11.0678H10.0019ZM12.0372 9.03248C10.9144 9.03248 10.0019 9.94521 10.0019 11.0678H11.0019C11.0019 10.4974 11.4668 10.0325 12.0372 10.0325V9.03248ZM14.0727 11.0678C14.0727 9.94515 13.1599 9.03248 12.0372 9.03248V10.0325C12.6077 10.0325 13.0727 10.4975 13.0727 11.0678H14.0727ZM12.9586 12.8812C13.6441 12.5323 14.0727 11.8367 14.0727 11.0678H13.0727C13.0727 11.4586 12.857 11.8108 12.505 11.9899L12.9586 12.8812ZM13.0809 12.6633C13.0879 12.7545 13.0392 12.8401 12.9591 12.8809L12.5046 11.9902C12.2266 12.132 12.0599 12.427 12.0838 12.7395L13.0809 12.6633ZM12.9275 12.4672C13.0134 12.4957 13.0741 12.5731 13.081 12.6639L12.0838 12.7389C12.1073 13.0511 12.3162 13.318 12.6127 13.4164L12.9275 12.4672ZM14.9865 15.2419C14.9535 13.977 14.1355 12.8672 12.9273 12.4671L12.6129 13.4164C13.4194 13.6835 13.9648 14.4229 13.9868 15.2679L14.9865 15.2419ZM11.9822 16.6094C13.0402 16.6094 14.0129 16.2485 14.791 15.6516L14.1823 14.8582C13.5695 15.3283 12.8086 15.6094 11.9822 15.6094V16.6094ZM9.17324 15.6516C9.95137 16.2485 10.9241 16.6094 11.9822 16.6094V15.6094C11.1557 15.6094 10.3948 15.3283 9.78193 14.8582L9.17324 15.6516ZM16.609 11.9825C16.609 9.43091 14.5339 7.35564 11.9822 7.35564V8.35564C13.9816 8.35564 15.609 9.98318 15.609 11.9825H16.609ZM15.3544 15.1415C16.1286 14.3154 16.609 13.2056 16.609 11.9825H15.609C15.609 12.9381 15.2347 13.8069 14.6248 14.4576L15.3544 15.1415ZM13.1881 13.0667C13.8813 13.436 14.3627 14.1072 14.4969 14.8846L15.4823 14.7145C15.2963 13.6367 14.6275 12.7005 13.6583 12.1841L13.1881 13.0667ZM13.6227 11.0678C13.6227 11.5295 13.4259 11.9552 13.0918 12.2511L13.7547 12.9998C14.3014 12.5158 14.6227 11.8183 14.6227 11.0678H13.6227ZM12.0372 9.48249C12.9111 9.48249 13.6227 10.194 13.6227 11.0678H14.6227C14.6227 9.64167 13.4633 8.48249 12.0372 8.48249V9.48249ZM10.4519 11.0678C10.4519 10.194 11.1635 9.48249 12.0372 9.48249V8.48249C10.6113 8.48249 9.4519 9.6417 9.4519 11.0678H10.4519ZM10.9517 12.2234C10.6368 11.9275 10.4519 11.5114 10.4519 11.0678H9.4519C9.4519 11.7913 9.75366 12.4699 10.2669 12.9522L10.9517 12.2234ZM9.46666 14.8826C9.6036 14.0795 10.1066 13.397 10.8323 13.0353L10.3863 12.1403C9.37159 12.6459 8.67082 13.6006 8.48089 14.7145L9.46666 14.8826ZM7.35517 11.9825C7.35517 13.2051 7.83527 14.3144 8.60886 15.1403L9.3387 14.4567C8.72924 13.8061 8.35517 12.9377 8.35517 11.9825H7.35517ZM11.9822 7.35564C9.43045 7.35564 7.35517 9.43089 7.35517 11.9825H8.35517C8.35517 9.9832 9.98271 8.35564 11.9822 8.35564V7.35564ZM5.46216 3.20725H5.45706V4.20725H5.46216V3.20725ZM7.04529 3.86234C6.62309 3.44015 6.05941 3.20725 5.46216 3.20725V4.20725C5.79491 4.20725 6.10402 4.33529 6.33818 4.56945L7.04529 3.86234ZM7.70037 5.45187C7.70209 4.85241 7.46906 4.28594 7.04521 3.86227L6.33825 4.56952C6.57317 4.80434 6.70134 5.11496 6.70037 5.449L7.70037 5.45187ZM7.03923 7.03975C7.46316 6.61617 7.69882 6.05072 7.70037 5.45173L6.70037 5.44914C6.69951 5.7831 6.56967 6.09529 6.33241 6.33235L7.03923 7.03975ZM5.45178 7.7006C6.05036 7.69887 6.61573 7.46342 7.03945 7.03953L6.3322 6.33257C6.095 6.56986 5.78274 6.69964 5.4489 6.7006L5.45178 7.7006ZM5.44524 7.7006H5.45034V6.7006H5.44524V7.7006ZM3.86225 7.04551C4.28443 7.46769 4.8481 7.7006 5.44524 7.7006V6.7006C5.11265 6.7006 4.80352 6.57257 4.56936 6.3384L3.86225 7.04551ZM3.20703 5.45598C3.2053 6.05554 3.43854 6.62198 3.86232 7.04558L4.56928 6.33833C4.3343 6.10344 4.20606 5.79279 4.20703 5.45886L3.20703 5.45598ZM3.86795 3.86832C3.44444 4.292 3.20875 4.85698 3.20703 5.45598L4.20703 5.45886C4.20799 5.1249 4.3378 4.81278 4.5752 4.57528L3.86795 3.86832ZM5.45562 3.20726C4.85704 3.20898 4.29167 3.44443 3.86795 3.86832L4.5752 4.57528C4.8124 4.33799 5.12466 4.20821 5.4585 4.20725L5.45562 3.20726ZM5.94335 5.94368C5.66832 6.21879 5.22577 6.21685 4.95807 5.94939L4.25127 6.6568C4.91357 7.31853 5.98915 7.31229 6.65056 6.65069L5.94335 5.94368ZM6.15038 5.44783C6.14991 5.63494 6.07741 5.8097 5.94351 5.94353L6.65041 6.65084C6.97063 6.33081 7.14923 5.90294 7.15037 5.45035L6.15038 5.44783ZM5.94931 4.95831C6.07985 5.08885 6.15093 5.26062 6.15038 5.44762L7.15037 5.45056C7.1517 4.9984 6.97598 4.57076 6.65642 4.25121L5.94931 4.95831ZM5.46216 4.75779C5.64103 4.75779 5.81618 4.8251 5.94921 4.95821L6.65652 4.25131C6.32683 3.92143 5.89318 3.75779 5.46216 3.75779V4.75779ZM4.96399 4.96422C5.10171 4.8265 5.28145 4.75779 5.46216 4.75779V3.75779C5.02708 3.75779 4.58968 3.92432 4.25689 4.25711L4.96399 4.96422ZM4.75702 5.46023C4.75757 5.27295 4.83014 5.09808 4.96399 4.96422L4.25689 4.25711C3.93689 4.57712 3.75836 5.00487 3.75703 5.45729L4.75702 5.46023ZM4.95822 5.94954C4.82758 5.8189 4.75647 5.64709 4.75702 5.46023L3.75703 5.45729C3.7557 5.90959 3.93166 6.33719 4.25111 6.65665L4.95822 5.94954ZM2.74251 13.2506C2.05997 13.2506 1.5 12.6914 1.5 11.9999H0.5C0.5 13.2393 1.50328 14.2506 2.74251 14.2506V13.2506ZM3.98515 11.9999C3.98515 12.6914 3.4251 13.2506 2.74251 13.2506V14.2506C3.98169 14.2506 4.98515 13.2394 4.98515 11.9999H3.98515ZM2.74251 10.7492C3.4251 10.7492 3.98515 11.3085 3.98515 11.9999H4.98515C4.98515 10.7605 3.98169 9.74922 2.74251 9.74922V10.7492ZM1.5 11.9999C1.5 11.3084 2.05997 10.7492 2.74251 10.7492V9.74922C1.50328 9.74922 0.5 10.7605 0.5 11.9999H1.5ZM2.74251 13.7006C3.67955 13.7006 4.43516 12.9348 4.43516 11.9999H3.43516C3.43516 12.389 3.12085 12.7006 2.74251 12.7006V13.7006ZM1.05 11.9999C1.05 12.9348 1.80557 13.7006 2.74251 13.7006V12.7006C2.36434 12.7006 2.05 12.389 2.05 11.9999H1.05ZM2.74251 10.2992C1.80557 10.2992 1.05 11.065 1.05 11.9999H2.05C2.05 11.6108 2.36434 11.2992 2.74251 11.2992V10.2992ZM4.43516 11.9999C4.43516 11.065 3.67955 10.2992 2.74251 10.2992V11.2992C3.12085 11.2992 3.43516 11.6109 3.43516 11.9999H4.43516ZM3.86795 20.1314C4.29167 20.5553 4.85703 20.7907 5.45562 20.7925L5.4585 19.7925C5.12466 19.7915 4.8124 19.6617 4.5752 19.4244L3.86795 20.1314ZM3.20703 18.5437C3.20875 19.1427 3.44444 19.7077 3.86795 20.1314L4.5752 19.4244C4.3378 19.1869 4.20799 18.8748 4.20703 18.5409L3.20703 18.5437ZM3.86232 16.9541C3.43854 17.3777 3.2053 17.9442 3.20703 18.5437L4.20703 18.5409C4.20606 18.2069 4.3343 17.8963 4.56928 17.6614L3.86232 16.9541ZM5.44524 16.2991C4.84816 16.2991 4.28429 16.532 3.86218 16.9543L4.56943 17.6612C4.80339 17.4272 5.11259 17.2991 5.44524 17.2991V16.2991ZM5.45034 16.2991H5.44524V17.2991H5.45034V16.2991ZM7.03945 16.9602C6.61573 16.5363 6.05036 16.3008 5.45178 16.2991L5.4489 17.2991C5.78274 17.3001 6.095 17.4299 6.3322 17.6672L7.03945 16.9602ZM7.70037 18.548C7.69882 17.949 7.46316 17.3836 7.03923 16.96L6.33241 17.6674C6.56967 17.9044 6.69951 18.2166 6.70037 18.5506L7.70037 18.548ZM7.04521 20.1375C7.46906 19.7138 7.70209 19.1473 7.70037 18.5478L6.70037 18.5507C6.70134 18.8848 6.57317 19.1954 6.33825 19.4302L7.04521 20.1375ZM5.46216 20.7925C6.05936 20.7925 6.62323 20.5596 7.04536 20.1373L6.33811 19.4303C6.10416 19.6644 5.79497 19.7925 5.46216 19.7925V20.7925ZM5.45706 20.7925H5.46216V19.7925H5.45706V20.7925ZM4.95822 18.0502C5.0915 17.9169 5.26649 17.8497 5.44537 17.8497V16.8497C5.01411 16.8497 4.58082 17.0134 4.25111 17.3431L4.95822 18.0502ZM4.75702 18.5395C4.75647 18.3526 4.82758 18.1808 4.95822 18.0502L4.25111 17.3431C3.93166 17.6625 3.7557 18.0901 3.75703 18.5424L4.75702 18.5395ZM4.96399 19.0355C4.83014 18.9016 4.75757 18.7268 4.75702 18.5395L3.75703 18.5424C3.75836 18.9949 3.93689 19.4226 4.25689 19.7426L4.96399 19.0355ZM5.94936 19.0414C5.68162 19.309 5.23928 19.3109 4.96405 19.0356L4.25684 19.7426C4.91805 20.404 5.99357 20.4112 6.65637 19.7486L5.94936 19.0414ZM6.15038 18.5521C6.15093 18.7391 6.07985 18.9109 5.94931 19.0414L6.65642 19.7485C6.97598 19.429 7.1517 19.0013 7.15037 18.5492L6.15038 18.5521ZM5.94351 18.0562C6.07741 18.19 6.14991 18.3648 6.15038 18.5519L7.15037 18.5494C7.14923 18.0968 6.97063 17.6689 6.65041 17.3489L5.94351 18.0562ZM5.44537 17.8497C5.62601 17.8497 5.8058 17.9184 5.9433 18.056L6.65061 17.3491C6.31788 17.0162 5.88026 16.8497 5.44537 16.8497V17.8497ZM12.0003 22.5C11.3088 22.5 10.7495 21.9399 10.7495 21.2574H9.74945C9.74945 22.4966 10.7609 23.5 12.0003 23.5V22.5ZM13.2511 21.2574C13.2511 21.9399 12.6918 22.5 12.0003 22.5V23.5C13.2397 23.5 14.2511 22.4966 14.2511 21.2574H13.2511ZM12.0003 20.015C12.6918 20.015 13.2511 20.5752 13.2511 21.2574H14.2511C14.2511 20.0184 13.2396 19.015 12.0003 19.015V20.015ZM10.7495 21.2574C10.7495 20.5752 11.3087 20.015 12.0003 20.015V19.015C10.7609 19.015 9.74945 20.0184 9.74945 21.2574H10.7495ZM12.0003 22.95C12.9353 22.95 13.7011 22.1945 13.7011 21.2574H12.7011C12.7011 21.6357 12.3895 21.95 12.0003 21.95V22.95ZM10.2994 21.2574C10.2994 22.1945 11.0653 22.95 12.0003 22.95V21.95C11.6111 21.95 11.2994 21.6357 11.2994 21.2574H10.2994ZM12.0003 19.565C11.0654 19.565 10.2994 20.3205 10.2994 21.2574H11.2994C11.2994 20.8794 11.611 20.565 12.0003 20.565V19.565ZM13.7011 21.2574C13.7011 20.3205 12.9352 19.565 12.0003 19.565V20.565C12.3896 20.565 12.7011 20.8794 12.7011 21.2574H13.7011ZM16.9545 20.1374C17.3766 20.5596 17.9403 20.7925 18.5376 20.7925V19.7925C18.2048 19.7925 17.8957 19.6644 17.6616 19.4303L16.9545 20.1374ZM16.2994 18.5478C16.2976 19.1473 16.5307 19.7138 16.9545 20.1375L17.6615 19.4302C17.4266 19.1954 17.2984 18.8848 17.2994 18.5507L16.2994 18.5478ZM16.9605 16.96C16.5366 17.3836 16.3009 17.949 16.2994 18.548L17.2994 18.5506C17.3002 18.2166 17.4301 17.9044 17.6673 17.6674L16.9605 16.96ZM18.548 16.2991C17.9494 16.3008 17.384 16.5363 16.9603 16.9602L17.6675 17.6672C17.9047 17.4299 18.217 17.3001 18.5508 17.2991L18.548 16.2991ZM18.5545 16.2991H18.5494V17.2991H18.5545V16.2991ZM20.1375 16.9542C19.7153 16.532 19.1516 16.2991 18.5545 16.2991V17.2991C18.8871 17.2991 19.1962 17.4271 19.4304 17.6613L20.1375 16.9542ZM20.7927 18.5437C20.7944 17.9442 20.5612 17.3777 20.1374 16.9541L19.4305 17.6614C19.6654 17.8963 19.7937 18.2069 19.7927 18.5409L20.7927 18.5437ZM20.1318 20.1314C20.5553 19.7077 20.791 19.1427 20.7927 18.5437L19.7927 18.5409C19.7917 18.8748 19.6619 19.1869 19.4245 19.4244L20.1318 20.1314ZM18.5441 20.7925C19.1427 20.7907 19.7081 20.5553 20.1318 20.1314L19.4245 19.4244C19.1873 19.6617 18.8751 19.7915 18.5412 19.7925L18.5441 20.7925ZM18.5376 20.7925H18.5427V19.7925H18.5376V20.7925ZM18.0563 18.0561C18.1941 17.9183 18.3737 17.8497 18.5544 17.8497V16.8497C18.1192 16.8497 17.682 17.0162 17.3492 17.349L18.0563 18.0561ZM17.8494 18.5519C17.8498 18.3648 17.9223 18.19 18.0562 18.0562L17.3493 17.3489C17.0291 17.6689 16.8505 18.0968 16.8494 18.5494L17.8494 18.5519ZM18.0504 19.0414C17.9199 18.9109 17.8488 18.7391 17.8494 18.5521L16.8494 18.5492C16.848 19.0013 17.0238 19.429 17.3433 19.7485L18.0504 19.0414ZM19.0357 19.0356C18.7604 19.3109 18.3179 19.3089 18.0505 19.0415L17.3433 19.7485C18.0059 20.4113 19.0817 20.4039 19.7429 19.7426L19.0357 19.0356ZM19.2427 18.5395C19.2422 18.7268 19.1696 18.9016 19.0357 19.0355L19.7428 19.7426C20.0629 19.4226 20.2414 18.9948 20.2427 18.5424L19.2427 18.5395ZM19.0415 18.0502C19.1722 18.1808 19.2433 18.3526 19.2427 18.5395L20.2427 18.5424C20.244 18.0901 20.0681 17.6625 19.7486 17.3431L19.0415 18.0502ZM18.5544 17.8497C18.733 17.8497 18.9083 17.9171 19.0416 18.0503L19.7485 17.343C19.4191 17.0137 18.9856 16.8497 18.5544 16.8497V17.8497ZM20.0148 11.9999C20.0148 11.3085 20.5748 10.7492 21.2574 10.7492V9.74922C20.0183 9.74922 19.0148 10.7605 19.0148 11.9999H20.0148ZM21.2574 13.2506C20.5748 13.2506 20.0148 12.6914 20.0148 11.9999H19.0148C19.0148 13.2394 20.0183 14.2506 21.2574 14.2506V13.2506ZM22.4999 11.9999C22.4999 12.6914 21.94 13.2506 21.2574 13.2506V14.2506C22.4967 14.2506 23.4999 13.2393 23.4999 11.9999H22.4999ZM21.2574 10.7492C21.94 10.7492 22.4999 11.3084 22.4999 11.9999H23.4999C23.4999 10.7605 22.4967 9.74922 21.2574 9.74922V10.7492ZM19.5648 11.9999C19.5648 12.9348 20.3204 13.7006 21.2574 13.7006V12.7006C20.8791 12.7006 20.5648 12.389 20.5648 11.9999H19.5648ZM21.2574 10.2992C20.3204 10.2992 19.5648 11.065 19.5648 11.9999H20.5648C20.5648 11.6109 20.8791 11.2992 21.2574 11.2992V10.2992ZM22.9499 11.9999C22.9499 11.065 22.1944 10.2992 21.2574 10.2992V11.2992C21.6356 11.2992 21.9499 11.6108 21.9499 11.9999H22.9499ZM21.2574 13.7006C22.1944 13.7006 22.9499 12.9348 22.9499 11.9999H21.9499C21.9499 12.389 21.6356 12.7006 21.2574 12.7006V13.7006ZM18.5427 3.20725H18.5376V4.20725H18.5427V3.20725ZM20.1318 3.86832C19.7081 3.44443 19.1427 3.20898 18.5441 3.20726L18.5412 4.20725C18.8751 4.20821 19.1873 4.33799 19.4245 4.57528L20.1318 3.86832ZM20.7927 5.45598C20.791 4.85698 20.5553 4.292 20.1318 3.86832L19.4245 4.57528C19.6619 4.81278 19.7917 5.1249 19.7927 5.45886L20.7927 5.45598ZM20.1374 7.04558C20.5612 6.62198 20.7944 6.05554 20.7927 5.45598L19.7927 5.45886C19.7937 5.79279 19.6654 6.10344 19.4305 6.33833L20.1374 7.04558ZM18.5545 7.7006C19.1516 7.7006 19.7154 7.46773 20.1376 7.04544L19.4303 6.33848C19.1963 6.57253 18.8871 6.7006 18.5545 6.7006V7.7006ZM18.5494 7.7006H18.5545V6.7006H18.5494V7.7006ZM16.9603 7.03953C17.384 7.46342 17.9494 7.69887 18.548 7.7006L18.5508 6.7006C18.217 6.69964 17.9047 6.56986 17.6675 6.33257L16.9603 7.03953ZM16.2994 5.45173C16.3009 6.05072 16.5366 6.61617 16.9605 7.03975L17.6673 6.33235C17.4301 6.09529 17.3002 5.7831 17.2994 5.44914L16.2994 5.45173ZM16.9545 3.86227C16.5307 4.28594 16.2976 4.85241 16.2994 5.45187L17.2994 5.449C17.2984 5.11497 17.4266 4.80434 17.6615 4.56952L16.9545 3.86227ZM18.5376 3.20725C17.9404 3.20725 17.3765 3.44011 16.9544 3.86241L17.6616 4.56937C17.8956 4.33533 18.2048 4.20725 18.5376 4.20725V3.20725ZM19.0416 5.94949C18.7739 6.21708 18.3315 6.21903 18.0565 5.94378L17.3491 6.65058C18.0105 7.31259 19.0862 7.31883 19.7486 6.6567L19.0416 5.94949ZM19.2427 5.46023C19.2433 5.64709 19.1722 5.8189 19.0415 5.94954L19.7486 6.65665C20.0681 6.33719 20.244 5.90959 20.2427 5.45729L19.2427 5.46023ZM19.0357 4.96422C19.1696 5.09807 19.2422 5.27295 19.2427 5.46023L20.2427 5.45729C20.2414 5.00487 20.0629 4.57712 19.7428 4.25711L19.0357 4.96422ZM18.5376 4.75779C18.7183 4.75779 18.898 4.8265 19.0357 4.96422L19.7428 4.25711C19.4101 3.92432 18.9727 3.75779 18.5376 3.75779V4.75779ZM18.0504 4.95831C18.1837 4.82505 18.3588 4.75779 18.5376 4.75779V3.75779C18.1065 3.75779 17.673 3.92148 17.3433 4.25121L18.0504 4.95831ZM17.8494 5.44762C17.8488 5.26062 17.9199 5.08885 18.0504 4.95831L17.3433 4.25121C17.0238 4.57076 16.848 4.99841 16.8494 5.45056L17.8494 5.44762ZM18.0562 5.94353C17.9223 5.8097 17.8498 5.63494 17.8494 5.44783L16.8494 5.45035C16.8505 5.90294 17.0291 6.33081 17.3493 6.65084L18.0562 5.94353ZM16.5039 3.68463C16.542 3.68463 16.58 3.69429 16.6135 3.7129L16.1269 4.58654C16.2452 4.65242 16.3751 4.68463 16.5039 4.68463V3.68463ZM16.3078 3.8C16.3494 3.72536 16.4269 3.68463 16.5039 3.68463V4.68463C16.774 4.68463 17.0387 4.54239 17.181 4.28729L16.3078 3.8ZM16.395 4.10642C16.2859 4.04566 16.2474 3.90834 16.3077 3.80011L17.1811 4.28718C17.3894 3.91361 17.2559 3.44114 16.8814 3.23268L16.395 4.10642ZM14.5817 3.34153C15.2102 3.52845 15.8203 3.78565 16.3945 4.10615L16.8819 3.23295C16.2436 2.87669 15.5657 2.59088 14.8667 2.38302L14.5817 3.34153ZM14.8615 3.18985C14.8261 3.30891 14.7005 3.37712 14.5808 3.34126L14.8676 2.38329C14.4573 2.26042 14.0251 2.49406 13.903 2.90477L14.8615 3.18985ZM14.7098 2.90988C14.8288 2.94524 14.897 3.07059 14.8614 3.19009L13.903 2.90453C13.7807 3.31514 14.0148 3.74664 14.425 3.86848L14.7098 2.90988ZM16.6137 3.71305C16.0108 3.37677 15.3704 3.10655 14.71 2.90996L14.4247 3.8684C15.0147 4.04402 15.5874 4.28566 16.1266 4.5864L16.6137 3.71305ZM7.62069 4.61972C7.74639 4.61972 7.87334 4.58901 7.98958 4.52601L7.51311 3.64682C7.5461 3.62894 7.58336 3.61972 7.62069 3.61972V4.61972ZM6.93908 4.21416C7.07984 4.47367 7.34701 4.61972 7.62069 4.61972V3.61972C7.69887 3.61972 7.77698 3.66156 7.8181 3.73738L6.93908 4.21416ZM7.25101 3.1633C6.87524 3.36723 6.73498 3.83701 6.93885 4.21374L7.81833 3.7378C7.87746 3.84705 7.83656 3.98329 7.728 4.0422L7.25101 3.1633ZM9.27728 2.33942C8.57443 2.53874 7.893 2.81577 7.25148 3.16304L7.72753 4.04246C8.30444 3.73017 8.9177 3.48083 9.55011 3.30148L9.27728 2.33942ZM10.2346 2.8745C10.119 2.46418 9.69146 2.21978 9.27494 2.34009L9.55244 3.30082C9.42972 3.33626 9.30513 3.2632 9.272 3.14561L10.2346 2.8745ZM9.70001 3.8306C10.1119 3.71398 10.3512 3.28535 10.2343 2.87345L9.2723 3.14665C9.2383 3.02694 9.30787 2.90231 9.42762 2.86841L9.70001 3.8306ZM7.98929 4.52617C8.53087 4.23313 9.10671 3.99884 9.70022 3.83054L9.4274 2.86847C8.76328 3.0568 8.11935 3.3188 7.51341 3.64666L7.98929 4.52617ZM3.22407 9.10467C3.34312 9.14004 3.41131 9.26538 3.3757 9.38488L2.41734 9.09932C2.29499 9.50994 2.52915 9.94143 2.93931 10.0633L3.22407 9.10467ZM3.16024 9.09552C3.18273 9.09552 3.20441 9.09883 3.22423 9.10472L2.93915 10.0632C3.01134 10.0847 3.08565 10.0955 3.16024 10.0955V9.09552ZM2.94449 9.25625C2.97381 9.15775 3.06383 9.09552 3.16024 9.09552V10.0955C3.49352 10.0955 3.80241 9.87914 3.9029 9.54163L2.94449 9.25625ZM3.74759 7.35254C3.41141 7.95515 3.14119 8.59565 2.94449 9.25625L3.9029 9.54163C4.07868 8.95131 4.32033 8.37848 4.62088 7.83974L3.74759 7.35254ZM3.83496 7.65891C3.72581 7.59815 3.68719 7.46066 3.74774 7.35227L4.62073 7.84001C4.82953 7.46629 4.69584 6.99364 4.32136 6.78517L3.83496 7.65891ZM4.14133 7.57061C4.08003 7.68114 3.94177 7.71853 3.83448 7.65864L4.32184 6.78545C3.94895 6.57732 3.47553 6.70924 3.2668 7.08564L4.14133 7.57061ZM3.37572 9.38482C3.56306 8.75579 3.82042 8.14565 4.14068 7.57178L3.26745 7.08446C2.91149 7.72231 2.62557 8.40015 2.41732 9.09939L3.37572 9.38482ZM3.86452 14.2656C3.74868 13.8572 3.32182 13.6118 2.90492 13.7324L3.18289 14.693C3.05925 14.7288 2.93559 14.6553 2.90246 14.5385L3.86452 14.2656ZM4.56032 15.9772C4.26715 15.4352 4.03297 14.8593 3.8645 14.2656L2.90248 14.5385C3.09092 15.2027 3.35275 15.8466 3.68075 16.4529L4.56032 15.9772ZM4.24762 17.0275C4.62405 16.8238 4.76389 16.3533 4.56026 15.977L3.68081 16.453C3.62167 16.3438 3.66214 16.2073 3.77162 16.1481L4.24762 17.0275ZM3.87897 17.1208C4.00455 17.1208 4.13059 17.0902 4.24565 17.0286L3.7736 16.147C3.8054 16.13 3.84174 16.1208 3.87897 16.1208V17.1208ZM3.1968 16.714C3.33751 16.9749 3.60547 17.1208 3.87897 17.1208V16.1208C3.95697 16.1208 4.0356 16.1626 4.07694 16.2393L3.1968 16.714ZM2.37345 14.689C2.57288 15.3914 2.84987 16.073 3.19714 16.7146L4.0766 16.2386C3.7643 15.6616 3.51493 15.0481 3.33543 14.4159L2.37345 14.689ZM2.90771 13.7316C2.49535 13.8484 2.2566 14.2776 2.37346 14.689L3.33542 14.4158C3.3693 14.5351 3.30027 14.6598 3.1801 14.6938L2.90771 13.7316ZM9.41871 20.5897C8.79018 20.4028 8.18011 20.1456 7.60589 19.8251L7.11852 20.6982C7.75681 21.0545 8.43472 21.3403 9.13366 21.5482L9.41871 20.5897ZM9.35474 20.5805C9.37721 20.5805 9.39891 20.5838 9.41876 20.5897L9.13361 21.5482C9.20583 21.5697 9.28016 21.5805 9.35474 21.5805V20.5805ZM9.13898 20.7412C9.16831 20.6427 9.25833 20.5805 9.35474 20.5805V21.5805C9.68801 21.5805 9.9969 21.3641 10.0974 21.0266L9.13898 20.7412ZM9.29064 21.0213C9.17159 20.986 9.1034 20.8606 9.13901 20.7411L10.0974 21.0267C10.2197 20.6161 9.98556 20.1846 9.5754 20.0627L9.29064 21.0213ZM7.38667 20.2182C7.98961 20.5544 8.62996 20.8247 9.29037 21.0212L9.57567 20.0628C8.98569 19.8872 8.41299 19.6455 7.87376 19.3448L7.38667 20.2182ZM7.69246 20.1315C7.63176 20.2401 7.49515 20.2786 7.38683 20.2182L7.87361 19.3447C7.50023 19.1367 7.02819 19.2702 6.81952 19.6436L7.69246 20.1315ZM7.6054 19.8248C7.71455 19.8855 7.75303 20.0229 7.69267 20.1311L6.81931 19.644C6.61097 20.0176 6.74453 20.4901 7.11901 20.6985L7.6054 19.8248ZM16.0116 19.4051C15.4701 19.6981 14.8942 19.9324 14.3007 20.1007L14.5735 21.0628C15.2377 20.8744 15.8816 20.6124 16.4875 20.2846L16.0116 19.4051ZM17.0619 19.7171C16.8584 19.342 16.3885 19.2 16.0106 19.4056L16.4886 20.284C16.3782 20.3441 16.2415 20.302 16.1828 20.1938L17.0619 19.7171ZM16.7499 20.768C17.1257 20.564 17.2659 20.0942 17.0621 19.7175L16.1826 20.1934C16.1235 20.0842 16.1644 19.948 16.2729 19.889L16.7499 20.768ZM14.7237 21.5918C15.4265 21.3925 16.1079 21.1155 16.7494 20.7682L16.2734 19.8888C15.6965 20.2011 15.0832 20.4504 14.4508 20.6298L14.7237 21.5918ZM14.512 21.6213C14.5804 21.6213 14.6526 21.6124 14.7259 21.5912L14.4485 20.6304C14.4717 20.6237 14.4934 20.6213 14.512 20.6213V21.6213ZM13.7665 21.0572C13.8633 21.3996 14.1747 21.6213 14.512 21.6213V20.6213C14.6096 20.6213 14.7005 20.685 14.7288 20.7852L13.7665 21.0572ZM14.3009 20.1006C13.889 20.2173 13.6497 20.6459 13.7667 21.0578L14.7286 20.7846C14.7626 20.9043 14.6931 21.0289 14.5733 21.0628L14.3009 20.1006ZM20.0558 16.2439C20.0939 16.2439 20.1319 16.2535 20.1653 16.2721L19.6788 17.1458C19.7971 17.2117 19.927 17.2439 20.0558 17.2439V16.2439ZM19.8593 16.3597C19.9012 16.2844 19.9789 16.2439 20.0558 16.2439V17.2439C20.3255 17.2439 20.5907 17.1018 20.7331 16.846L19.8593 16.3597ZM20.6245 14.5462C20.4372 15.1752 20.1798 15.7854 19.8595 16.3592L20.7328 16.8465C21.0887 16.2087 21.3747 15.5309 21.5829 14.8316L20.6245 14.5462ZM20.7762 14.8263C20.6571 14.791 20.5889 14.6656 20.6245 14.5461L21.5829 14.8317C21.7052 14.4211 21.4711 13.9896 21.0609 13.8677L20.7762 14.8263ZM21.0558 14.6746C21.0204 14.7937 20.8949 14.8619 20.775 14.826L21.0621 13.8681C20.6519 13.7451 20.2194 13.9788 20.0973 14.3895L21.0558 14.6746ZM20.2526 16.5785C20.5888 15.9759 20.859 15.3354 21.0557 14.6748L20.0973 14.3894C19.9215 14.9797 19.6799 15.5525 19.3793 16.0913L20.2526 16.5785ZM20.1653 16.2721C20.2744 16.3328 20.313 16.4703 20.2525 16.5787L19.3795 16.091C19.1707 16.4647 19.3044 16.9374 19.6789 17.1458L20.1653 16.2721ZM19.4388 7.95376C19.732 8.49573 19.9662 9.07161 20.1347 9.66535L21.0967 9.3924C20.9082 8.72824 20.6464 8.08435 20.3184 7.47798L19.4388 7.95376ZM19.7515 6.9034C19.3751 7.10714 19.2353 7.57765 19.4389 7.95387L20.3183 7.47787C20.3775 7.58715 20.337 7.72358 20.2275 7.78284L19.7515 6.9034ZM20.8022 7.21667C20.5982 6.8389 20.1279 6.70085 19.7526 6.90283L20.2265 7.78341C20.1187 7.84144 19.9819 7.80221 19.9224 7.69193L20.8022 7.21667ZM21.6257 9.24193C21.4263 8.53947 21.1493 7.85796 20.802 7.21631L19.9226 7.69228C20.2349 8.26933 20.4842 8.88279 20.6637 9.51504L21.6257 9.24193ZM21.0914 10.1993C21.5038 10.0826 21.7426 9.65337 21.6257 9.24189L20.6637 9.51508C20.6299 9.39579 20.6989 9.27113 20.8191 9.23711L21.0914 10.1993ZM20.8801 10.2287C20.9484 10.2287 21.0206 10.2198 21.094 10.1986L20.8165 9.23784C20.8397 9.23114 20.8614 9.22868 20.8801 9.22868V10.2287ZM20.1347 9.66567C20.2318 10.007 20.5425 10.2287 20.8801 10.2287V9.22868C20.9778 9.22868 21.0683 9.29243 21.0966 9.39208L20.1347 9.66567Z" fill="#D5DAE1"/>
</svg>
