<svg width="15" height="15" viewBox="0 0 15 15" fill="none" xmlns="http://www.w3.org/2000/svg">
<path d="M7.5 15C11.6421 15 15 11.6421 15 7.5C15 3.35786 11.6421 0 7.5 0C3.35786 0 0 3.35786 0 7.5C0 11.6421 3.35786 15 7.5 15Z" fill="#54B8B2"/>
<path d="M5.73501 6.49442C5.58216 6.64828 5.56353 6.89036 5.69103 7.06597C5.99103 7.47847 6.32311 7.86665 6.68414 8.22718C7.08706 8.63142 7.5249 8.99915 7.99277 9.32631C8.16838 9.44941 8.40735 9.42873 8.55914 9.27718L9.3919 8.44442C9.62103 8.21528 9.99293 8.21528 10.2221 8.44442L11.6755 9.89786C11.9047 10.127 11.9047 10.4989 11.6755 10.728L11.2824 11.1212C10.7096 11.6999 9.87606 11.9374 9.08417 11.747C8.34943 11.5523 7.6509 11.2404 7.01519 10.8238C6.42993 10.4529 5.88709 10.0194 5.39622 9.53066C4.94493 9.08168 4.5394 8.58876 4.18588 8.0591C3.7969 7.486 3.4889 6.86194 3.27035 6.20479C3.00164 5.3671 3.22432 4.44952 3.84709 3.82805L4.30485 3.36252C4.53398 3.13339 4.90588 3.13339 5.13504 3.36252L6.58848 4.81597C6.81761 5.0451 6.81761 5.41699 6.58848 5.64615L5.73501 6.49442Z" fill="white"/>
</svg>
