<svg width="20" height="20" viewBox="0 0 20 20" fill="none" xmlns="http://www.w3.org/2000/svg">
<path d="M17 1H3C1.89543 1 1 1.89543 1 3V17C1 18.1046 1.89543 19 3 19H17C18.1046 19 19 18.1046 19 17V3C19 1.89543 18.1046 1 17 1Z" stroke="#D5DAE1" stroke-width="2" stroke-linecap="round" stroke-linejoin="round"/>
<path d="M17.8889 9H10.1111C9.49746 9 9 9.49746 9 10.1111V17.8889C9 18.5025 9.49746 19 10.1111 19H17.8889C18.5025 19 19 18.5025 19 17.8889V10.1111C19 9.49746 18.5025 9 17.8889 9Z" stroke="#D5DAE1" stroke-width="2" stroke-linecap="round" stroke-linejoin="round"/>
</svg>
