<svg width="24" height="23" viewBox="0 0 24 23" fill="none" xmlns="http://www.w3.org/2000/svg">
<path d="M19 3H5C3.89543 3 3 3.89543 3 5V19C3 20.1046 3.89543 21 5 21H19C20.1046 21 21 20.1046 21 19V5C21 3.89543 20.1046 3 19 3Z" stroke="#D5DAE1" stroke-width="2" stroke-linecap="round" stroke-linejoin="round"/>
<path d="M16 1V5" stroke="#D5DAE1" stroke-width="2" stroke-linecap="round" stroke-linejoin="round"/>
<path d="M8 1V5" stroke="#D5DAE1" stroke-width="2" stroke-linecap="round" stroke-linejoin="round"/>
<path d="M3 9H21" stroke="#D5DAE1" stroke-width="2" stroke-linecap="round" stroke-linejoin="round"/>
<path d="M11.9167 17.8333C13.5275 17.8333 14.8333 16.5275 14.8333 14.9167C14.8333 13.3058 13.5275 12 11.9167 12C10.3058 12 9 13.3058 9 14.9167C9 16.5275 10.3058 17.8333 11.9167 17.8333Z" stroke="#D5DAE1" stroke-linecap="round" stroke-linejoin="round"/>
<path d="M9 15H14.5" stroke="#D5DAE1" stroke-linecap="round" stroke-linejoin="round"/>
</svg>
