<svg width="294" height="215" viewBox="0 0 294 215" fill="none" xmlns="http://www.w3.org/2000/svg">
<path d="M150.042 54.9999C230.079 56.423 293.687 -1.34677 292.264 78.6904C290.841 158.728 209.662 213.574 129.625 212.151C49.5877 210.728 1.00058 153.574 2.42372 73.5367C3.84687 -6.50043 70.0045 53.5767 150.042 54.9999Z" fill="#FAD2BB"/>
<g clip-path="url(#clip0)">
<path d="M74.2136 106.982H70.1391L144.943 181.785L206.374 120.354H225.284L144.943 200.695L54.5724 110.429C52.1346 107.992 49.9755 105.38 48.095 102.594C46.2144 99.8078 44.5777 96.8129 43.1847 93.609H68.5719L98.1382 64.1472L144.943 110.847L178.375 77.5199L194.568 93.609H231.656C233.885 90.0569 235.592 86.2958 236.776 82.3258C237.96 78.3557 238.552 74.2812 238.552 70.1022C238.552 64.0427 237.437 58.4011 235.209 53.1774C232.98 47.9537 229.88 43.4265 225.91 39.5957C221.94 35.765 217.343 32.7352 212.12 30.5065C206.896 28.2777 201.22 27.1633 195.09 27.1633C189.24 27.1633 184.051 28.0687 179.524 29.8796C174.997 31.6905 170.818 34.1282 166.987 37.1928C163.156 40.2574 159.499 43.6354 156.017 47.3268C152.535 51.0183 148.843 54.8838 144.943 58.9235C141.182 55.1624 137.525 51.3665 133.973 47.5358C130.421 43.705 126.729 40.2574 122.899 37.1928C119.068 34.1282 114.854 31.6208 110.257 29.6707C105.66 27.7205 100.506 26.7454 94.795 26.7454C88.8052 26.7454 83.1984 27.8598 77.9746 30.0886C72.7509 32.3173 68.1541 35.4167 64.184 39.3868C60.214 43.3568 57.1146 47.9537 54.8858 53.1774C52.657 58.4011 51.5078 64.0427 51.4382 70.1022C51.4382 73.3758 51.8212 76.7538 52.5874 80.2363H38.9012C38.553 78.5647 38.344 76.8931 38.2744 75.2215C38.2047 73.5499 38.1351 71.8783 38.0654 70.2067C38.0654 62.3363 39.5281 54.9535 42.4534 48.0581C45.3786 41.1628 49.4183 35.1381 54.5724 29.9841C59.7265 24.83 65.7511 20.7903 72.6465 17.865C79.5418 14.9398 86.9246 13.4423 94.795 13.3727C100.576 13.3727 105.73 14.0343 110.257 15.3577C114.784 16.681 118.963 18.4919 122.794 20.7903C126.625 23.0888 130.316 25.9096 133.868 29.2528C137.421 32.5959 141.112 36.1829 144.943 40.0136C148.773 36.1132 152.43 32.5263 155.913 29.2528C159.395 25.9792 163.086 23.1932 166.987 20.8948C170.887 18.5964 175.101 16.7507 179.628 15.3577C184.155 13.9647 189.31 13.303 195.09 13.3727C202.891 13.3727 210.239 14.8353 217.135 17.7606C224.03 20.6859 230.02 24.7255 235.104 29.8796C240.189 35.0337 244.228 41.0235 247.223 47.8492C250.218 54.6749 251.716 62.0229 251.716 69.8933C251.716 76.6493 250.531 83.1964 248.163 89.5345C245.795 95.8726 242.417 101.688 238.029 106.982H188.926L178.375 96.3253L144.943 129.862L98.1382 82.9526L74.2136 106.982Z" fill="#455880"/>
</g>
<defs>
<clipPath id="clip0">
<rect width="213.964" height="213.964" fill="white" transform="translate(37.9609)"/>
</clipPath>
</defs>
</svg>
