<svg width="370" height="370" viewBox="0 0 370 370" fill="none" xmlns="http://www.w3.org/2000/svg">
<path d="M193.521 165.5C193.521 235.088 243.502 311 174.062 311C104.623 311 48.3311 254.588 48.3311 185C48.3311 115.412 104.623 59 174.062 59C243.502 59 193.521 95.9121 193.521 165.5Z" fill="#13D6C3"/>
<g clip-path="url(#clip0)">
<path d="M244.92 203.747C250.889 206.126 256.333 209.298 261.252 213.263C266.172 217.228 270.369 221.787 273.846 226.941C277.322 232.096 280.044 237.68 282.012 243.693C283.98 249.706 284.931 256.017 284.865 262.625H272.272C272.272 255.62 270.96 249.045 268.336 242.9C265.713 236.754 262.105 231.402 257.514 226.842C252.922 222.283 247.577 218.648 241.477 215.939C235.377 213.23 228.85 211.875 221.898 211.875C214.945 211.875 208.419 213.197 202.319 215.84C196.219 218.483 190.906 222.118 186.38 226.743C181.854 231.369 178.247 236.754 175.557 242.9C172.868 249.045 171.523 255.62 171.523 262.625H158.93C158.93 256.083 159.881 249.805 161.783 243.792C163.685 237.779 166.375 232.195 169.851 227.041C173.327 221.886 177.525 217.327 182.444 213.362C187.364 209.397 192.841 206.192 198.875 203.747C194.218 200.179 190.611 195.784 188.052 190.564C185.494 185.344 184.183 179.76 184.117 173.812C184.117 168.592 185.101 163.669 187.069 159.043C189.036 154.418 191.726 150.387 195.136 146.951C198.547 143.514 202.548 140.772 207.14 138.724C211.731 136.675 216.65 135.684 221.898 135.75C227.079 135.75 231.966 136.741 236.557 138.724C241.149 140.706 245.15 143.415 248.56 146.852C251.971 150.288 254.693 154.352 256.727 159.043C258.76 163.735 259.744 168.658 259.678 173.812C259.678 179.76 258.399 185.344 255.841 190.564C253.283 195.784 249.643 200.179 244.92 203.747ZM196.711 173.812C196.711 177.315 197.366 180.586 198.678 183.625C199.99 186.665 201.794 189.375 204.09 191.753C206.385 194.132 209.042 195.95 212.059 197.205C215.076 198.461 218.356 199.121 221.898 199.188C225.374 199.188 228.621 198.527 231.638 197.205C234.655 195.883 237.344 194.066 239.706 191.753C242.067 189.441 243.871 186.764 245.117 183.725C246.363 180.685 247.019 177.381 247.085 173.812C247.085 170.31 246.429 167.039 245.117 164C243.805 160.96 242.001 158.25 239.706 155.872C237.41 153.493 234.753 151.675 231.736 150.42C228.719 149.164 225.439 148.504 221.898 148.438C218.421 148.438 215.174 149.098 212.157 150.42C209.14 151.742 206.451 153.559 204.09 155.872C201.728 158.184 199.924 160.861 198.678 163.9C197.432 166.94 196.776 170.244 196.711 173.812ZM322.646 110.375V237.25H296.376C295.655 235.069 294.835 232.922 293.917 230.807C292.998 228.693 291.982 226.611 290.867 224.562H310.052V123.062H133.743V224.562H152.928C151.813 226.611 150.797 228.693 149.878 230.807C148.96 232.922 148.14 235.069 147.419 237.25H121.149V110.375H322.646Z" fill="#455880"/>
</g>
<defs>
<clipPath id="clip0">
<rect width="201.496" height="203" fill="white" transform="translate(121.149 85)"/>
</clipPath>
</defs>
</svg>
