<svg width="24" height="25" viewBox="0 0 24 25" fill="none" xmlns="http://www.w3.org/2000/svg">
<path fill-rule="evenodd" clip-rule="evenodd" d="M0 24.25V22.25C0 20.25 2 14.25 12 14.25C22 14.25 24 20.25 24 22.25V24.25H0ZM12 12.25C13.59 12.25 15.12 11.6179 16.24 10.4926C17.37 9.3674 18 7.8413 18 6.25C18 4.6587 17.37 3.1326 16.24 2.0074C15.12 0.8821 13.59 0.25 12 0.25C10.41 0.25 8.88001 0.8821 7.76001 2.0074C6.63001 3.1326 6 4.6587 6 6.25C6 7.8413 6.63001 9.3674 7.76001 10.4926C8.88001 11.6179 10.41 12.25 12 12.25Z" fill="black"/>
</svg>
