<svg width="19" height="20" viewBox="0 0 19 20" fill="none" xmlns="http://www.w3.org/2000/svg">
<path d="M17.3332 14.0999V16.5999C17.3341 16.832 17.2866 17.0617 17.1936 17.2744C17.1006 17.487 16.9643 17.6779 16.7933 17.8348C16.6222 17.9917 16.4203 18.1112 16.2005 18.1855C15.9806 18.2599 15.7477 18.2875 15.5165 18.2666C12.9522 17.988 10.489 17.1117 8.32486 15.7083C6.31139 14.4288 4.60431 12.7217 3.32486 10.7083C1.91651 8.53426 1.04007 6.05908 0.76653 3.48325C0.745705 3.25281 0.773092 3.02055 0.846947 2.80127C0.920801 2.58199 1.03951 2.38049 1.1955 2.2096C1.3515 2.03871 1.54137 1.90218 1.75302 1.80869C1.96468 1.7152 2.19348 1.6668 2.42486 1.66658H4.92486C5.32928 1.6626 5.72136 1.80582 6.028 2.06953C6.33464 2.33324 6.53493 2.69946 6.59153 3.09992C6.69705 3.89997 6.89274 4.68552 7.17486 5.44158C7.28698 5.73985 7.31125 6.06401 7.24478 6.37565C7.17832 6.68729 7.02392 6.97334 6.79986 7.19992L5.74153 8.25825C6.92783 10.3445 8.65524 12.072 10.7415 13.2583L11.7999 12.1999C12.0264 11.9759 12.3125 11.8215 12.6241 11.755C12.9358 11.6885 13.2599 11.7128 13.5582 11.8249C14.3143 12.107 15.0998 12.3027 15.8999 12.4083C16.3047 12.4654 16.6744 12.6693 16.9386 12.9812C17.2029 13.2931 17.3433 13.6912 17.3332 14.0999Z" stroke="#22335E" stroke-width="1.5" stroke-linecap="round" stroke-linejoin="round"/>
</svg>
