<svg width="25" height="30" viewBox="0 0 25 30" fill="none" xmlns="http://www.w3.org/2000/svg">
<path d="M12.1699 29.25C13.8199 29.25 15.1699 27.9 15.1699 26.25H9.16992C9.16992 27.0456 9.48993 27.8087 10.0499 28.3713C10.6099 28.9339 11.3699 29.25 12.1699 29.25ZM21.1699 20.25V12.75C21.1699 8.145 18.7099 4.29 14.4199 3.27V2.25C14.4199 1.005 13.4099 0 12.1699 0C10.9199 0 9.91992 1.005 9.91992 2.25V3.27C5.60992 4.29 3.16992 8.13 3.16992 12.75V20.25L0.169922 23.25V24.75H24.1699V23.25L21.1699 20.25Z" fill="black"/>
</svg>
