<svg width="324" height="311" viewBox="0 0 324 311" fill="none" xmlns="http://www.w3.org/2000/svg">
<path d="M160.973 104.706C204.475 44.6298 160.81 -24.4219 220.885 19.0804C280.961 62.5827 279.62 153.35 236.118 213.426C192.615 273.501 123.425 280.136 63.3495 236.634C3.27378 193.132 117.47 164.781 160.973 104.706Z" fill="#FED385"/>
<g clip-path="url(#clip0)">
<path d="M154.886 183.69C157.467 183.69 159.887 184.174 162.146 185.142C164.405 186.11 166.373 187.433 168.051 189.111C169.729 190.789 171.052 192.757 172.02 195.016C172.988 197.275 173.472 199.695 173.472 202.276C173.472 204.858 172.988 207.278 172.02 209.537C171.052 211.795 169.729 213.764 168.051 215.442C166.373 217.12 164.405 218.443 162.146 219.411C159.887 220.379 157.467 220.863 154.886 220.863C152.304 220.863 149.884 220.379 147.626 219.411C145.367 218.443 143.398 217.12 141.721 215.442C140.043 213.764 138.72 211.795 137.752 209.537C136.784 207.278 136.3 204.858 136.3 202.276C136.3 200.276 136.654 198.211 137.364 196.081H85.6712C86.3811 198.211 86.7361 200.276 86.7361 202.276C86.7361 204.858 86.2521 207.278 85.284 209.537C84.316 211.795 82.993 213.764 81.3151 215.442C79.6371 217.12 77.6688 218.443 75.41 219.411C73.1513 220.379 70.7312 220.863 68.1498 220.863C65.5683 220.863 63.1482 220.379 60.8895 219.411C58.6307 218.443 56.6624 217.12 54.9845 215.442C53.3065 213.764 51.9836 211.795 51.0155 209.537C50.0475 207.278 49.5635 204.858 49.5635 202.276C49.5635 198.727 50.4992 195.436 52.3708 192.402C54.2423 189.369 56.8237 187.078 60.1151 185.529L18.2959 59.7815H0V47.3906H27.2018L35.4301 72.1724H198.254L169.406 158.908H64.3744L72.6027 183.69H154.886ZM39.5927 84.5632L60.2119 146.518H160.404L181.023 84.5632H39.5927ZM74.3452 202.276C74.3452 200.599 73.7321 199.146 72.5059 197.92C71.2798 196.694 69.8277 196.081 68.1498 196.081C66.4718 196.081 65.0198 196.694 63.7936 197.92C62.5674 199.146 61.9543 200.599 61.9543 202.276C61.9543 203.954 62.5674 205.406 63.7936 206.633C65.0198 207.859 66.4718 208.472 68.1498 208.472C69.8277 208.472 71.2798 207.859 72.5059 206.633C73.7321 205.406 74.3452 203.954 74.3452 202.276ZM154.886 208.472C156.564 208.472 158.016 207.859 159.242 206.633C160.468 205.406 161.081 203.954 161.081 202.276C161.081 200.599 160.468 199.146 159.242 197.92C158.016 196.694 156.564 196.081 154.886 196.081C153.208 196.081 151.756 196.694 150.53 197.92C149.303 199.146 148.69 200.599 148.69 202.276C148.69 203.954 149.303 205.406 150.53 206.633C151.756 207.859 153.208 208.472 154.886 208.472Z" fill="#455880"/>
</g>
<defs>
<clipPath id="clip0">
<rect width="198.254" height="198.254" fill="white" transform="translate(0 35)"/>
</clipPath>
</defs>
</svg>
